<?xml version="1.0" encoding="UTF-8" standalone="no"?>
<!-- Uploaded to: SVG Repo, www.svgrepo.com, Transformed by: SVG Repo Mixer Tools -->

<svg
   width="800px"
   height="400px"
   viewBox="0 0 306.67 177.67"
   fill="#ffffff"
   version="1.1"
   id="svg2"
   sodipodi:docname="cloud.svg"
   inkscape:version="1.4 (e7c3feb1, 2024-10-09)"
   xmlns:inkscape="http://www.inkscape.org/namespaces/inkscape"
   xmlns:sodipodi="http://sodipodi.sourceforge.net/DTD/sodipodi-0.dtd"
   xmlns:xlink="http://www.w3.org/1999/xlink"
   xmlns="http://www.w3.org/2000/svg"
   xmlns:svg="http://www.w3.org/2000/svg">
  <defs
     id="defs2">
    <linearGradient
       id="linearGradient6"
       inkscape:collect="always">
      <stop
         style="stop-color:#ffffff;stop-opacity:1;"
         offset="0"
         id="stop7" />
      <stop
         style="stop-color:#ffffff;stop-opacity:0;"
         offset="1"
         id="stop8" />
    </linearGradient>
    <linearGradient
       id="swatch2"
       inkscape:swatch="solid">
      <stop
         style="stop-color:#000000;stop-opacity:1;"
         offset="0"
         id="stop2" />
    </linearGradient>
    <radialGradient
       inkscape:collect="always"
       xlink:href="#linearGradient6"
       id="radialGradient8"
       cx="153.33064"
       cy="88.602039"
       fx="153.33064"
       fy="88.602039"
       r="153.82909"
       gradientTransform="matrix(1,0,0,0.57922801,0,37.281256)"
       gradientUnits="userSpaceOnUse" />
  </defs>
  <sodipodi:namedview
     id="namedview2"
     pagecolor="#ffffff"
     bordercolor="#000000"
     borderopacity="0.25"
     inkscape:showpageshadow="2"
     inkscape:pageopacity="0.0"
     inkscape:pagecheckerboard="0"
     inkscape:deskcolor="#d1d1d1"
     inkscape:zoom="1.06"
     inkscape:cx="382.54717"
     inkscape:cy="265.09434"
     inkscape:window-width="1280"
     inkscape:window-height="1387"
     inkscape:window-x="2792"
     inkscape:window-y="25"
     inkscape:window-maximized="0"
     inkscape:current-layer="SVGRepo_iconCarrier" />
  <g
     id="SVGRepo_bgCarrier"
     stroke-width="0" />
  <g
     id="SVGRepo_tracerCarrier"
     stroke-linecap="round"
     stroke-linejoin="round" />
  <g
     id="SVGRepo_iconCarrier"
     style="fill:#ff0000;fill-opacity:1;stroke:none;stroke-opacity:1">
    <defs
       id="defs1"
       style="stroke:url(#radialGradient8)">
      <style
         id="style1"
         style="stroke:url(#radialGradient8)">.cls-1{fill:#ffffff;}</style>
    </defs>
    <g
       id="Layer_2"
       data-name="Layer 2"
       style="fill:#ffffff;fill-opacity:1;stroke:none;stroke-opacity:1">
      <g
         id="Layer_1-2"
         data-name="Layer 1"
         style="fill:#ffffff;fill-opacity:1;stroke:none;stroke-opacity:1">
        <path
           d="m 41.28,83.23 c 1.26,-3.3 2.46,-6.2 3.5,-9.16 4,-11.39 13,-16.23 24,-18.13 3.34,-0.58 6.85,-0.22 10.29,-0.26 l 7.218066,-0.419033 C 86.538066,50.820967 86.16,47.32 86.08,43.4 c -0.12,-5.51 2.1,-9.82 5.47,-14 15.15,-18.86 35.29,-27.91 58.85,-29.32 11.91,-0.71 23.08,3.37 33.37,9.52 9.66,5.78 16.42,14.08 21.2,24.14 0.72,1.52 1.6,3 2.64,4.88 10.77,-2.21 21.08,-2 30,5.6 8.35077,6.910274 13.86486,16.653366 15.49,27.37 h 6.18 c 5.7,0.06 11.38,-0.22 17,1.34 8.39,2.3 15.06,6.66 19.71,14.09 6.67,10.63 11,21.94 10.65,34.73 -0.31,11.72 -5,20.84 -15,27.4 -7.64486,5.08177 -16.24181,8.55865 -25.27,10.22 -7.83402,1.34713 -15.7358,2.26517 -23.67,2.75 -3.43439,0.0691 -6.86228,-0.3279 -10.19,-1.18 -4.74,-1 -9,0 -13.36,1.87 -7.58,3.28 -15.13,6.66 -22.88,9.49 -4.81115,1.76928 -9.8005,3.00991 -14.88,3.7 -11.05212,1.57481 -22.26954,1.6051 -33.33,0.09 -10.09,-1.48 -18.93,-6.24 -27.31,-11.86 -1.65,-1.11 -3.32,-2.19 -5.28,-3.5 -2.93,1.68 -5.78,3.5 -8.79,5 -2.82,1.4 -5.77,2.52 -8.71,3.64 -5.905298,2.2197 -12.134601,3.45611 -18.44,3.66 -9.45,0.38 -18.84,0.75 -28.17,-1.66 C 28.57,165.51 11.91,152.29 2.69,130.52 -1.25,121.23 -0.58,111.46 2.87,102.01 3.7091691,99.887841 4.9521394,97.948672 6.53,96.3 14.28,88 23.7,83.12 35.33,83.23 Z"
           id="path1"
           style="fill:#ffffff;fill-opacity:1;stroke:none;stroke-opacity:1"
           sodipodi:nodetypes="cccccccccccccccccccccccccccccccccccc" />
      </g>
    </g>
  </g>
</svg>
