<?xml version="1.0" encoding="UTF-8" standalone="no"?>
<!-- Uploaded to: SVG Repo, www.svgrepo.com, Generator: SVG Repo Mixer Tools -->

<svg
   width="800px"
   height="800px"
   viewBox="0 0 36 36"
   aria-hidden="true"
   role="img"
   class="iconify iconify--twemoji"
   preserveAspectRatio="xMidYMid meet"
   version="1.1"
   id="svg6"
   sodipodi:docname="fish.svg"
   inkscape:version="1.4 (e7c3feb1, 2024-10-09)"
   xmlns:inkscape="http://www.inkscape.org/namespaces/inkscape"
   xmlns:sodipodi="http://sodipodi.sourceforge.net/DTD/sodipodi-0.dtd"
   xmlns="http://www.w3.org/2000/svg"
   xmlns:svg="http://www.w3.org/2000/svg">
  <defs
     id="defs6" />
  <sodipodi:namedview
     id="namedview6"
     pagecolor="#ffffff"
     bordercolor="#000000"
     borderopacity="0.25"
     inkscape:showpageshadow="2"
     inkscape:pageopacity="0.0"
     inkscape:pagecheckerboard="0"
     inkscape:deskcolor="#d1d1d1"
     inkscape:zoom="0.74953319"
     inkscape:cx="454.28275"
     inkscape:cy="480.29895"
     inkscape:window-width="1280"
     inkscape:window-height="1387"
     inkscape:window-x="2792"
     inkscape:window-y="25"
     inkscape:window-maximized="0"
     inkscape:current-layer="svg6" />
  <path
     fill="#3B88C3"
     d="m 31.462235,9.4179204 c 0,-0.784018 2.559099,-4.493755 3.753942,-5.6878137 1.193275,-1.1940589 0,-2.4821999 -1.194059,-2.4821999 -2.66958,0 -7.165137,5.4105056 -7.165137,8.5465766 0,3.9200876 4.494773,8.1725996 7.165137,8.1725996 1.194059,0 2.388118,-1.100761 1.194059,-2.295604 -1.194059,-1.193275 -3.753942,-4.685524 -3.753942,-6.2535586 z"
     id="path1"
     style="fill:#8be5ee;fill-opacity:1;stroke-width:0.784018"
     sodipodi:nodetypes="scssscs" />
  <path
     fill="#3B88C3"
     d="m 13.844113,3.5262691 c 0,-2.3881177 5.368259,-3.57167777 6.556994,-3.45904977 0.993608,0.094141 0.85313,1.86376287 1.754531,2.64281527 0.716125,0.6189247 4.132424,1.0367717 3.812135,2.0259818 -0.376699,1.163433 -1.076561,1.969286 -2.252536,3.685935 -1.839934,2.6858766 -9.871124,-4.8956823 -9.871124,-4.8956823 z m 2.016948,12.3062489 c 1.33527,0.393863 0.182201,1.306284 1.358967,1.918198 0.97204,0.505458 3.774103,0.07918 3.823264,-0.641541 0.05799,-0.850257 -3.196432,-0.879533 -2.522592,-1.687035 1.709158,-2.051775 -2.659639,0.410378 -2.659639,0.410378 z m 6.127772,-1.896801 c -0.451471,1.810186 1.735003,3.197567 2.771077,3.51859 1.04652,0.32426 0.761601,-0.673944 0.810762,-1.394666 0.05799,-0.850257 0.427984,-0.926604 1.101825,-1.734107 1.709158,-2.051774 -4.683664,-0.389817 -4.683664,-0.389817 z"
     id="path2"
     style="fill:#8be5ee;fill-opacity:1;stroke-width:0.784018"
     sodipodi:nodetypes="cssssccssccssscs" />
  <path
     fill="#55ACEE"
     d="m 8.0328929,8.1221664 c -0.00469,2.4502006 1.9286399,1.855288 3.9700241,4.2157806 1.91751,2.217255 -1.734283,-1.432327 -3.7331699,-2.043246 -0.6585748,0.25167 0.4129206,3.436334 0.6575341,3.830695 1.1744588,2.046286 5.1004378,2.195909 8.9217398,2.195909 2.647697,0 5.99867,-1.056377 8.216307,-2.362822 C 29.371612,12.010702 31.813085,11.969571 31.634,9.4212904 31.449576,6.7970164 28.513059,7.0399284 25.672292,5.2008504 23.063955,3.5122462 19.409938,3.226547 16.253018,3.226547 9.6743259,3.225763 8.0344957,7.2841064 8.0328929,8.1221664 Z"
     id="path4"
     style="fill:#57b9e7;fill-opacity:1;stroke-width:0.784018"
     sodipodi:nodetypes="ssccsssscs" />
  <path
     d="m 10.62492,6.7538734 a 1.003191,1.003191 0 1 1 5.02e-4,2.005881 1.003191,1.003191 0 0 1 -5.02e-4,-2.005881 z"
     fill="#000000"
     id="path5"
     style="stroke-width:0.501596" />
  <path
     fill="#269"
     d="m 14.784879,14.766991 a 0.67655879,0.7816656 0 0 1 -0.600556,-1.147018 c 1.075572,-2.378709 1.505123,-4.5222136 0.104504,-7.2466746 a 0.67883921,0.78430029 0 0 1 1.167183,-0.801266 c 1.827454,3.55552 0.990747,6.4305126 -0.06922,8.7739406 a 0.67791598,0.78323363 0 0 1 -0.601913,0.421018 z"
     id="path6"
     style="fill:#1e6ad5;fill-opacity:1;stroke-width:0.729404" />
  <path
     fill="#269"
     d="m 17.015876,13.87266 a 0.55022006,0.63569951 0 0 1 -0.488411,-0.932826 c 0.874723,-1.934516 1.224061,-3.6777486 0.08499,-5.8934506 a 0.55207491,0.63784252 0 0 1 0.949227,-0.65164 c 1.486201,2.891572 0.805738,5.2296966 -0.05629,7.1355196 a 0.55132381,0.63697473 0 0 1 -0.489514,0.342397 z"
     id="path6-5"
     style="fill:#1e6ad5;fill-opacity:1;stroke-width:0.593197" />
  <path
     fill="#269"
     d="m 18.89483,13.221638 a 0.45825161,0.5294433 0 0 1 -0.406773,-0.776906 c 0.728514,-1.611165 1.01946,-3.0630186 0.07078,-4.9083696 a 0.45979635,0.53122803 0 0 1 0.790565,-0.542719 c 1.237785,2.40825 0.67106,4.3555606 -0.04688,5.9428276 a 0.45917087,0.53050537 0 0 1 -0.407692,0.285167 z"
     id="path6-5-4"
     style="fill:#1e6ad5;fill-opacity:1;stroke-width:0.494045" />
  <circle
     id="path7"
     style="fill:#8be5ee;stroke:#000000;stroke-width:0.0352808"
     cx="15.244154"
     cy="7.8292398"
     r="0.0064865891" />
</svg>
