<?xml version="1.0" encoding="UTF-8" standalone="no"?>
<!-- Uploaded to: SVG Repo, www.svgrepo.com, Generator: SVG Repo Mixer Tools -->

<svg
   width="800px"
   height="800px"
   viewBox="0 0 36 36"
   aria-hidden="true"
   role="img"
   class="iconify iconify--twemoji"
   preserveAspectRatio="xMidYMid meet"
   version="1.1"
   id="svg6"
   sodipodi:docname="fish.svg"
   inkscape:version="1.4 (e7c3feb1, 2024-10-09)"
   xmlns:inkscape="http://www.inkscape.org/namespaces/inkscape"
   xmlns:sodipodi="http://sodipodi.sourceforge.net/DTD/sodipodi-0.dtd"
   xmlns="http://www.w3.org/2000/svg"
   xmlns:svg="http://www.w3.org/2000/svg">
  <defs
     id="defs6" />
  <sodipodi:namedview
     id="namedview6"
     pagecolor="#ffffff"
     bordercolor="#000000"
     borderopacity="0.25"
     inkscape:showpageshadow="2"
     inkscape:pageopacity="0.0"
     inkscape:pagecheckerboard="0"
     inkscape:deskcolor="#d1d1d1"
     inkscape:zoom="0.74953319"
     inkscape:cx="454.28275"
     inkscape:cy="480.29895"
     inkscape:window-width="1280"
     inkscape:window-height="1387"
     inkscape:window-x="2792"
     inkscape:window-y="25"
     inkscape:window-maximized="0"
     inkscape:current-layer="svg6" />
  <path
     fill="#3B88C3"
     d="m 30.411916,18.119701 c 0,-1 3.264084,-5.731701 4.788084,-7.254701 1.522,-1.523 0,-3.166 -1.523,-3.166 -3.405,0 -9.139,6.901 -9.139,10.901 0,5 5.733,10.424 9.139,10.424 1.523,0 3.046,-1.404 1.523,-2.928 -1.523,-1.522 -4.788084,-5.976299 -4.788084,-7.976299 z"
     id="path1"
     style="fill:#8be5ee;fill-opacity:1"
     sodipodi:nodetypes="scssscs" />
  <path
     fill="#3B88C3"
     d="m 7.9403274,10.605009 c 0,-3.046 6.8471156,-4.555609 8.3633256,-4.411954 1.267328,0.120075 1.088151,2.377195 2.237871,3.370862 0.913404,0.789427 5.270831,1.322383 4.862308,2.584102 -0.480473,1.483938 -1.373134,2.511788 -2.873068,4.701342 C 18.183962,20.275147 7.9403274,10.605009 7.9403274,10.605009 Z m 2.5725806,15.696393 c 1.703112,0.502365 0.232394,1.666141 1.733337,2.446626 1.239819,0.644702 4.813799,0.100995 4.876503,-0.818273 0.07397,-1.084487 -4.076991,-1.121828 -3.21752,-2.151783 2.18,-2.617 -3.39232,0.52343 -3.39232,0.52343 z m 7.815859,-2.419335 c -0.575842,2.308859 2.212965,4.078438 3.534458,4.487897 1.334817,0.413587 0.971408,-0.859603 1.034112,-1.778871 0.07397,-1.084487 0.545886,-1.181866 1.405357,-2.211821 2.18,-2.617 -5.973927,-0.497205 -5.973927,-0.497205 z"
     id="path2"
     style="fill:#8be5ee;fill-opacity:1"
     sodipodi:nodetypes="cssssccssccssscs" />
  <path
     fill="#55ACEE"
     d="m 0.52822421,16.466991 c -0.005977,3.125186 2.45994459,2.366385 5.06369209,5.37715 C 8.0376649,24.672209 3.3798711,20.017235 0.83032737,19.238019 -0.00967263,19.559019 1.357,23.621 1.669,24.124 c 1.498,2.61 6.5055142,2.800841 11.379514,2.800841 3.377089,0 7.651192,-1.34739 10.479748,-3.013736 4.217103,-2.484359 7.331157,-2.53682 7.102738,-5.787105 -0.23523,-3.347214 -3.980703,-3.037384 -7.604049,-5.383093 -3.326885,-2.153784 -7.987516,-2.518188 -12.01411,-2.518188 -8.3909994,-10e-4 -10.48257246,5.175342 -10.48461679,6.244272 z"
     id="path4"
     style="fill:#57b9e7;fill-opacity:1"
     sodipodi:nodetypes="ssccsssscs" />
  <path
     d="m 3.8343073,14.721759 a 1.2795516,1.2795516 0 1 1 6.398e-4,2.558463 1.2795516,1.2795516 0 0 1 -6.398e-4,-2.558463 z"
     fill="#000000"
     id="path5"
     style="stroke-width:0.639776" />
  <path
     fill="#269"
     d="m 9.140258,24.942342 a 0.86293821,0.997 0 0 1 -0.765999,-1.463 c 1.371873,-3.034 1.919757,-5.768 0.133293,-9.243 a 0.86584684,1.0003605 0 0 1 1.48872,-1.022 c 2.330885,4.535 1.26368,8.202 -0.08829,11.191 a 0.86466928,0.999 0 0 1 -0.767729,0.537 z"
     id="path6"
     style="fill:#1e6ad5;fill-opacity:1;stroke-width:0.930341" />
  <path
     fill="#269"
     d="m 11.985853,23.80164 a 0.7017955,0.81082296 0 0 1 -0.622959,-1.189803 c 1.115693,-2.467439 1.561267,-4.6909 0.108402,-7.516988 a 0.70416107,0.81355603 0 0 1 1.210721,-0.831154 c 1.895622,3.688146 1.027704,6.670381 -0.0718,9.101223 a 0.70320331,0.81244948 0 0 1 -0.624366,0.436722 z"
     id="path6-5"
     style="fill:#1e6ad5;fill-opacity:1;stroke-width:0.756612" />
  <path
     fill="#269"
     d="m 14.382424,22.971273 a 0.58449145,0.67529513 0 0 1 -0.518832,-0.990929 c 0.929206,-2.055011 1.300303,-3.906824 0.09028,-6.260535 a 0.58646172,0.67757149 0 0 1 1.008351,-0.692228 c 1.578772,3.071678 0.855925,5.555437 -0.0598,7.579967 a 0.58566394,0.67664978 0 0 1 -0.520004,0.363725 z"
     id="path6-5-4"
     style="fill:#1e6ad5;fill-opacity:1;stroke-width:0.630145" />
  <circle
     id="path7"
     style="fill:#8be5ee;stroke:#000000;stroke-width:0.045"
     cx="9.7260542"
     cy="16.093369"
     r="0.0082735242" />
</svg>
