<?xml version="1.0" encoding="UTF-8" standalone="no"?>
<!-- Uploaded to: SVG Repo, www.svgrepo.com, Transformed by: SVG Repo Mixer Tools -->

<svg
   width="800px"
   height="800px"
   viewBox="0 0 24 24"
   version="1.1"
   fill="#000000"
   id="svg4"
   sodipodi:docname="flower.svg"
   inkscape:version="1.4 (e7c3feb1, 2024-10-09)"
   xmlns:inkscape="http://www.inkscape.org/namespaces/inkscape"
   xmlns:sodipodi="http://sodipodi.sourceforge.net/DTD/sodipodi-0.dtd"
   xmlns="http://www.w3.org/2000/svg"
   xmlns:svg="http://www.w3.org/2000/svg">
  <defs
     id="defs4" />
  <sodipodi:namedview
     id="namedview4"
     pagecolor="#ffffff"
     bordercolor="#000000"
     borderopacity="0.25"
     inkscape:showpageshadow="2"
     inkscape:pageopacity="0.0"
     inkscape:pagecheckerboard="0"
     inkscape:deskcolor="#d1d1d1"
     showguides="false"
     inkscape:zoom="0.74953319"
     inkscape:cx="399.58204"
     inkscape:cy="444.27653"
     inkscape:window-width="1280"
     inkscape:window-height="1387"
     inkscape:window-x="2792"
     inkscape:window-y="25"
     inkscape:window-maximized="0"
     inkscape:current-layer="g4" />
  <g
     id="SVGRepo_bgCarrier"
     stroke-width="0" />
  <g
     id="SVGRepo_tracerCarrier"
     stroke-linecap="round"
     stroke-linejoin="round" />
  <g
     id="SVGRepo_iconCarrier">
    <g
       transform="translate(0 -1028.4)"
       id="g4">
      <g
         transform="matrix(0.73808199,0,0,0.73808199,3.1456516,270.80479)"
         id="g2">
        <path
           d="M 10,3.0938 C 9.9275076,4.4827472 11.093901,9.1611307 10.806332,9.2178624 10.189459,9.1924194 8.4271864,5.2688454 6.3685325,3.8741624 4.8028646,2.8528423 3.2603886,2.3343127 3,4 2.8888,5.4425 3.9002,6.6818 4.9688,7.5312 6.4416,8.5508 7.4390895,8.8606258 9.25,10.781 10.170917,11.757583 4.6226508,9.4881466 2.0625,10.125 c -2.72719946,0.6173 -2.7699832,3.123016 0,3.75 0.0402,0.01 0.0855,0.023 0.125,0.031 C 4.6097811,14.372047 9.806679,12.668831 9.25,13.219 7.3182346,15.477358 2.9938721,16.504369 3,20 c 0.1601718,1.025661 1.4165652,1.780389 3.2812,0.562 2.1503832,-1.456551 3.908982,-5.023109 4.4378,-5.343 0.610204,-0.369122 -1.0234853,4.08022 -0.625,6.593 0.006,0.031 0.024,0.064 0.031,0.094 0.596078,2.739121 3.086055,2.882127 3.75,0 0.007,-0.033 0.025,-0.06 0.031,-0.094 0.482556,-2.507113 -1.092279,-6.881707 -0.625,-6.593 0.780048,0.481951 2.287803,3.88695 4.438,5.343 0.82,0.536 2.058,1.003 2.875,0.219 0.225,-0.196 0.36,-0.489 0.406,-0.781 0.111,-1.442 -0.9,-2.682 -1.969,-3.531 -1.473,-1.02 -3.467961,-2.375006 -4.281,-3.25 -0.739686,-0.796051 4.545417,1.151987 7.062,0.687 2.977045,-0.595409 2.834976,-3.268306 0,-3.812 C 19.640611,9.6711883 14.300588,11.312951 14.75,10.781 16.797997,8.677583 21.055707,7.4548579 21,4 20.837712,2.9708804 19.582437,2.2214938 17.719,3.4375 15.947181,4.9341126 13.110352,10.712778 13.281,8.7812 13.409726,7.3241359 13.971667,4.9985247 14,3.0938 c -0.09446,-4.08886483 -3.905439,-4.09313879 -4,0 z"
           fill="#e4e2f7"
           id="path2"
           sodipodi:nodetypes="cscccscccsccsccccsccccsccsccscc"
           transform="translate(0,1028.4)" />
      </g>
      <path
         d="m 13.96398,1038.72 c 0,2.6186 -3.92796,2.6186 -3.92796,0 0,-2.6187 3.92796,-2.6187 3.92796,0 z"
         fill="#7b60bd"
         id="path3"
         sodipodi:nodetypes="sss"
         style="stroke-width:0.490995" />
      <path
         d="m 13.61046,1038.72 a 1.6104605,1.6104605 0 1 1 -3.220921,0 1.6104605,1.6104605 0 1 1 3.220921,0 z"
         fill="#e67e22"
         id="path4"
         style="fill:#a68f8a;fill-opacity:1;stroke-width:0.72022" />
    </g>
  </g>
</svg>
