<?xml version="1.0" encoding="UTF-8" standalone="no"?>
<!-- Uploaded to: SVG Repo, www.svgrepo.com, Generator: SVG Repo Mixer Tools -->

<svg
   width="800"
   height="600"
   viewBox="0 0 1024 768"
   class="icon"
   version="1.1"
   id="svg20"
   sodipodi:docname="lake.svg"
   inkscape:version="1.4 (e7c3feb1, 2024-10-09)"
   xmlns:inkscape="http://www.inkscape.org/namespaces/inkscape"
   xmlns:sodipodi="http://sodipodi.sourceforge.net/DTD/sodipodi-0.dtd"
   xmlns="http://www.w3.org/2000/svg"
   xmlns:svg="http://www.w3.org/2000/svg">
  <defs
     id="defs20">
    <inkscape:path-effect
       effect="mirror_symmetry"
       start_point="558.1087,-20.492755"
       end_point="558.1087,747.50725"
       center_point="558.1087,363.50725"
       id="path-effect25"
       is_visible="true"
       lpeversion="1.2"
       lpesatellites=""
       mode="vertical"
       discard_orig_path="false"
       fuse_paths="false"
       oposite_fuse="false"
       split_items="false"
       split_open="false"
       link_styles="false" />
    <inkscape:path-effect
       effect="mirror_symmetry"
       start_point="496.63043,-52.939617"
       end_point="496.63043,715.06038"
       center_point="496.63043,331.06038"
       id="path-effect24"
       is_visible="true"
       lpeversion="1.2"
       lpesatellites=""
       mode="vertical"
       discard_orig_path="false"
       fuse_paths="false"
       oposite_fuse="false"
       split_items="false"
       split_open="false"
       link_styles="false" />
  </defs>
  <sodipodi:namedview
     id="namedview20"
     pagecolor="#ffffff"
     bordercolor="#000000"
     borderopacity="0.25"
     inkscape:showpageshadow="2"
     inkscape:pageopacity="0.0"
     inkscape:pagecheckerboard="0"
     inkscape:deskcolor="#d1d1d1"
     showguides="false"
     inkscape:zoom="11.992531"
     inkscape:cx="596.95489"
     inkscape:cy="302.6884"
     inkscape:window-width="1280"
     inkscape:window-height="1387"
     inkscape:window-x="2792"
     inkscape:window-y="25"
     inkscape:window-maximized="0"
     inkscape:current-layer="g26" />
  <g
     id="g25"
     style="opacity:1">
    <g
       id="g26"
       style="opacity:0.851">
      <rect
         style="opacity:1;fill:#43ab64;fill-opacity:1;stroke-width:1.09654"
         id="rect21"
         width="1036.5918"
         height="373.99277"
         x="-1.7077255"
         y="-5.1231871" />
      <path
         d="m 435.61672,83.675561 c -32.74923,0 -194.78205,71.657879 -145.8913,71.657879 H 531.69676 C 485.76648,118.60996 502.43655,83.675561 435.61672,83.675561 Z"
         fill="#745154"
         id="path18-8"
         style="stroke-width:1.50931"
         sodipodi:nodetypes="sscs" />
      <path
         d="M 599.35542,109.25324 C 572.07405,91.135864 435.34012,197.92378 484.20325,196.28068 L 738.1287,187.74203 C 692.19842,151.01855 655.92887,146.82329 599.35542,109.25324 Z"
         fill="#745154"
         id="path18-8-8"
         style="stroke-width:1.50931"
         sodipodi:nodetypes="sscs" />
      <rect
         style="opacity:1;fill:#b3f4ef;fill-opacity:1;stroke-width:1.12648"
         id="rect20"
         width="1048.5459"
         height="386.21619"
         x="-5.1231885"
         y="385.67761" />
      <path
         d="m 459.62627,141.56828 c -28,0 -69.334,-11.91884 -96,-42.77844 -26.668,-30.859612 -69.334,-65.924464 -78.668,-65.924464 -9.334,0 -36.334,28.053472 -56.834,35.064852 -20.5,7.011406 -35.166,12.273898 -56.5,19.285291 -21.332,7.014022 -62.666,29.807621 -62.666,29.807621 0,0 0.98,26.37821 0,35.94326 -0.98,9.56243 118.666,27.17508 175.334,18.40952 56.666,-8.76819 175.334,-29.80764 175.334,-29.80764 z m 491.332,-62.242555 c -34,-14.464609 -50,-23.669368 -83,-7.889794 -33,15.779588 -78,41.166299 -107,42.281399 -29,1.11245 -136.334,39.24645 -136.334,39.24645 l 347.334,-6.57483 z"
         fill="#926e79"
         id="path2"
         style="stroke-width:1.14671" />
      <path
         d="m 121.82373,143.27601 h 811.884 v 241.95358 h -811.884 z"
         fill="#ddf9ff"
         id="path3"
         style="stroke-width:1.14671" />
      <path
         d="m 933.70773,143.27601 h -801.6 c -4.238,3.30846 -7.912,6.46175 -10.284,9.02067 v 6.11985 c 6.552,2.01716 23.574,-0.28929 23.574,-0.28929 13.81,0 14.91,29.2001 27.31,29.2001 9.5,0 11.51,-13.80713 23.5,-13.80713 9.596,0 4,48.65372 17.5,48.65372 6.818,0 17.166,-30.139 22.666,-10.8511 5.5,19.28791 2.362,47.67012 11.334,47.67012 11.5,0 16.666,-75.39221 24,-57.85847 7.334,17.53374 15.784,20.73963 19,0.65748 4,-24.98433 11,-45.36629 17.668,-20.82115 6.666,24.54513 7.52,56.98269 16.334,56.98269 6.624,0 14.334,-61.36416 21,-47.33874 6.666,14.02542 12.666,79.77367 17.334,59.61262 4.666,-20.16366 17.334,-92.92331 24,-75.3922 6.666,17.53374 12,12.27388 20,2.62993 8,-9.64396 12.666,51.72284 18.666,43.83304 6,-7.88978 16,-57.85846 22,-44.70881 6,13.14966 18,81.52784 23.334,71.88389 5.334,-9.64396 10,-80.65208 18,-69.25395 8,11.39811 6.664,29.80499 19.33,29.80499 5.334,0 20.666,-55.22853 25.334,-37.69478 4.668,17.53374 10.318,71.0344 19.334,71.0344 7.208,0 4,-73.66434 19.334,-73.66434 10,0 10.49,40.32472 20.666,40.32472 7.334,0 19.334,-62.24255 23.334,-42.07889 4,20.16368 2.666,123.60673 12.666,123.60673 9.276,0 11.334,-126.23665 18,-116.59269 6.666,9.64395 15.334,11.39548 22.666,-2.62993 7.332,-14.02542 6,55.39159 14,47.42026 8,-7.97132 9.334,-60.56991 19.334,-46.54449 10,14.02541 15.972,48.77204 23.108,48.77204 13.092,0 8.39,-41.10054 19.42,-41.10054 14.806,0 11.472,101.34699 21.834,101.34699 11.638,0 15.636,-122.16815 27.636,-105.5128 12,16.65534 12.002,41.20311 20.668,41.20311 8.666,0 15.332,-61.36416 20,-30.68339 4.668,30.68339 8,78.8979 21.332,41.20312 13.336,-37.69479 11.75,-34.71246 16.876,-23.05397 3.398,7.72673 37.286,-28.42166 59.792,-53.71633 z"
         fill="#ffffff"
         id="path4"
         style="stroke-width:1.14671" />
      <path
         d="m -13.429837,255.0981 c 0.62,46.38671 -19.114214,71.1156 -11.702214,114.76192 l 266.839781,15.36957 c 0,-52.59859 -67.112,-96.43165 -87.064,-168.31553 -14.276,-51.43353 -4.64,-88.64179 -21.766,-105.19721 C 100.42773,80.349676 47.904,56.649214 0,51.2 -63.463889,55.307101 -9.0083775,158.23761 -9.9723775,218.46037 Z"
         fill="#86646a"
         id="path5"
         style="stroke-width:1.14671"
         sodipodi:nodetypes="cccccccc" />
      <path
         d="m 692.0545,549.89699 c -22.058,0 -131.194,61.4115 -98.264,61.4115 h 162.978 c -30.936,-31.47238 -19.708,-61.4115 -64.714,-61.4115 z"
         fill="#745154"
         id="path18"
         style="stroke-width:1.14671"
         sodipodi:nodetypes="sscs" />
      <path
         d="m -6.8215611,629.41503 c 58.7868241,1.46848 88.0084651,1.783 133.2252111,1.99147 28.06561,0.1294 68.35556,1.20554 103.98144,2.28172 42.83163,1.29384 80.6294,-8.41933 80.6294,-19.64276 0,-27.11458 -16.714,-49.09291 -37.334,-49.09291 -4.446,0 -8.652,1.19661 -12.606,3.06912 -10.266,-16.7132 -25.784,-27.61689 -43.394,-27.61689 -12.704,0 -24.282,5.7727 -33.676,15.14314 -13.614,-23.9613 -35.16,-39.69091 -59.658,-39.69091 -21.072,0 -40.024,11.57432 -53.6,30.03643 -6.51,-3.48466 -13.604,-5.48866 -21.066,-5.48866 -7.464,0 -14.556,2.004 -21.068,5.48866 -8.948,-12.16868 -27.2049186,-5.54626 -39.890918,-10.38797 -36.25563,5.14086 -64.441898,92.18848 4.4568669,93.90956 z m 1129.8605611,0 c -58.7869,1.46848 -88.0085,1.783 -133.22525,1.99147 -28.06561,0.1294 -68.35556,1.20554 -103.98144,2.28172 -42.83163,1.29384 -80.6294,-8.41933 -80.6294,-19.64276 0,-27.11458 16.714,-49.09291 37.334,-49.09291 4.446,0 8.652,1.19661 12.606,3.06912 10.266,-16.7132 25.784,-27.61689 43.394,-27.61689 12.704,0 24.282,5.7727 33.676,15.14314 13.614,-23.9613 35.16,-39.69091 59.658,-39.69091 21.07199,0 40.02399,11.57432 53.59999,30.03643 6.51,-3.48466 13.604,-5.48866 21.066,-5.48866 7.464,0 14.556,2.004 21.068,5.48866 8.948,-12.16868 27.2049,-5.54626 39.8909,-10.38797 36.2557,5.14086 64.4419,92.18848 -4.4568,93.90956 z"
         fill="#52c883"
         id="path12"
         style="fill:#43ab5f;fill-opacity:1;stroke-width:1.14671"
         sodipodi:nodetypes="ssssscscscsccs"
         inkscape:path-effect="#path-effect25"
         inkscape:original-d="m -6.8215611,629.41503 c 58.7868241,1.46848 88.0084651,1.783 133.2252111,1.99147 28.06561,0.1294 68.35556,1.20554 103.98144,2.28172 42.83163,1.29384 80.6294,-8.41933 80.6294,-19.64276 0,-27.11458 -16.714,-49.09291 -37.334,-49.09291 -4.446,0 -8.652,1.19661 -12.606,3.06912 -10.266,-16.7132 -25.784,-27.61689 -43.394,-27.61689 -12.704,0 -24.282,5.7727 -33.676,15.14314 -13.614,-23.9613 -35.16,-39.69091 -59.658,-39.69091 -21.072,0 -40.024,11.57432 -53.6,30.03643 -6.51,-3.48466 -13.604,-5.48866 -21.066,-5.48866 -7.464,0 -14.556,2.004 -21.068,5.48866 -8.948,-12.16868 -27.2049186,-5.54626 -39.890918,-10.38797 -36.25563,5.14086 -64.441898,92.18848 4.4568669,93.90956 z"
         transform="translate(-46.108698,20.492755)" />
      <path
         d="M 1051.3236,256.73853 C 1071.8164,197.38371 1062.484,53.884226 1024,51.2 c -48.39431,1.150928 -83.74627,30.480416 -108.90627,60.51685 -36.348,43.39385 -75.29,252.4733 -145.386,252.4733 l -20.97,21.03944 c 0,0 82.90148,28.52608 131.65508,30.26145 52.84349,1.88095 150.43809,-51.55925 150.43809,-51.55925 35.3756,-20.09922 3.9749,-59.35145 20.4927,-107.19326 z"
         fill="#86646a"
         id="path13"
         style="stroke-width:1.14671"
         sodipodi:nodetypes="sccccscs" />
      <path
         d="m 1064.9855,243.07669 c 0,-35.66185 -36.9235,-109.07653 -40.9855,-143.23669 -36.77197,2.4958 -59.01627,13.9992 -68.29227,43.43601 -19.334,61.36417 -40.362,22.79361 -50,94.67749 -5.29,39.44896 -76,129.64241 -94,143.71779 -18,14.07539 56.64735,45.26167 92.64735,32.11202 22.746,-8.30796 63.06298,-17.85891 119.64492,-25.94331 10.4258,-54.17269 41.0023,-88.88281 40.9855,-144.76331 z m -925.94377,38.14706 c -18.666,-21.59963 -16,-78.33773 -17.216,-92.61563 -1.218,-14.28052 -15.392,-28.85032 -21.45,-45.33211 C 90.70773,116.97671 56.988,99.84 0,99.84 c -6.2920004,39.87764 -38.327781,74.78905 -39.001781,116.91528 l 15.325567,34.93 C -23.056214,298.07198 -7.4120003,344.19367 0,387.84 l 236.37573,-2.60777 c -0.002,-22.79624 -78.668,-82.40623 -97.334,-104.00848 z"
         fill="#745154"
         id="path14"
         style="stroke-width:1.14671"
         sodipodi:nodetypes="ccccscccccccccccc" />
      <path
         d="m 762.37837,399.01903 c 0.0446,-0.83655 0.35432,-1.55052 0.35432,-2.40512 0,-18.58635 -10.7536,-30.45157 -24.28217,-30.45157 -7.25709,0 -13.81166,1.32336 -18.29715,8.21059 -4.77157,-8.05553 -11.74783,-13.51481 -19.89729,-13.51481 -9.01822,0 -16.57715,6.6925 -21.24636,16.26968 -4.45661,-8.36922 -11.30951,-14.16384 -19.43536,-14.16384 -5.85554,0 -11.01556,3.21283 -15.23071,7.92208 -5.60358,-9.87285 -14.24385,-16.33459 -24.06258,-16.33459 -8.83186,0 -16.72937,5.21409 -22.3172,13.43187 -3.62198,-2.90273 -7.60092,-5.01936 -12.0969,-5.01936 -4.30964,0 -8.14947,1.93633 -11.66909,4.62272 -4.17053,-3.90515 -8.92898,-6.72494 -14.35934,-6.72494 -7.54055,0 -14.19923,4.5506 -18.95243,11.58925 -4.40412,-5.81627 -10.33053,-9.48343 -16.91834,-9.48343 -8.37781,0 -15.40918,6.14801 -19.82643,14.96075 -4.19415,-7.61198 -10.53,-12.85493 -18.01281,-12.85493 -7.32271,0 -13.55883,5.01217 -17.76348,12.34649 -4.64821,-9.73945 -12.278,-16.55454 -21.38808,-16.55454 -5.09703,0 -9.57726,2.53854 -13.59294,6.0146 -3.32016,-2.31136 -6.92902,-3.91237 -10.90533,-3.91237 -6.47495,0 -12.27275,3.60227 -16.65325,9.24186 -3.90545,-4.21888 -8.6114,-7.13604 -13.96564,-7.13604 -6.56944,0 -12.40661,3.88713 -16.59027,9.95941 -4.49336,-7.22976 -10.94207,-12.06523 -18.40388,-12.06523 -7.19935,0 -13.51683,4.44243 -17.99707,11.23951 -4.28566,-5.85003 -10.0817,-9.13347 -16.12308,-9.13369 -5.01829,0 -9.41454,2.66836 -13.194,6.42204 -5.5852,-10.22622 -14.40133,-16.94036 -24.42478,-16.94036 -8.65339,0 -16.43541,4.9761 -22.00487,12.90902 -2.73227,-1.55672 -5.65879,-2.36869 -8.61665,-2.3907 -12.68349,0 -22.96549,14.12603 -22.96548,31.55136 0,0.85097 0.30446,1.56854 0.35432,2.40511 h 530.48432 z"
         fill="#ffffff"
         id="path15"
         style="stroke-width:1.53818"
         sodipodi:nodetypes="csscscscscscscscscscscscscccsccsccc" />
      <path
         d="m 759.57946,383.81728 c -3.4776,2.86448 0.56778,2.83132 0.56778,3.68592 0,18.58635 -8.29874,31.30543 -21.82731,31.30543 -7.25709,0 -13.59819,-4.52535 -18.08368,-11.41258 -4.77157,8.05553 -11.74783,13.51481 -19.89729,13.51481 -9.01822,0 -16.57715,-6.6925 -21.24636,-16.26968 -4.45661,8.36922 -11.30951,14.16384 -19.43536,14.16384 -5.85554,0 -11.01556,-3.21283 -15.23071,-7.92208 -5.60358,9.87285 -14.24385,16.33459 -24.06258,16.33459 -8.83186,0 -16.72937,-5.21409 -22.3172,-13.43187 -3.62198,2.90273 -7.60092,5.01936 -12.0969,5.01936 -4.30964,0 -8.14947,-1.93633 -11.66909,-4.62272 -4.17053,3.90515 -8.92898,6.72494 -14.35934,6.72494 -7.54055,0 -14.19923,-4.5506 -18.95243,-11.58925 -4.40412,5.81627 -10.33053,9.48343 -16.91834,9.48343 -8.37781,0 -15.40918,-6.14801 -19.82643,-14.96075 -4.19415,7.61198 -10.53,12.85493 -18.01281,12.85493 -7.32271,0 -13.55883,-5.01217 -17.76348,-12.34649 -4.64821,9.73945 -12.278,16.55454 -21.38808,16.55454 -5.09703,0 -9.57726,-2.53854 -13.59294,-6.0146 -3.32016,2.31136 -6.92902,3.91237 -10.90533,3.91237 -6.47495,0 -12.27275,-3.60227 -16.65325,-9.24186 -3.90545,4.21888 -8.6114,7.13604 -13.96564,7.13604 -6.56944,0 -12.40661,-3.88713 -16.59027,-9.95941 -4.49336,7.22976 -10.94207,12.06523 -18.40388,12.06523 -7.19935,0 -13.51683,-4.44243 -17.99707,-11.23951 -4.28566,5.85003 -10.0817,9.13347 -16.12308,9.13369 -5.01829,0 -9.41454,-2.66836 -13.194,-6.42204 -5.5852,10.22622 -14.40133,16.94036 -24.42478,16.94036 -8.65339,0 -16.43541,-4.9761 -22.00487,-12.90902 -2.73227,1.55672 -5.65879,2.36869 -8.61665,2.3907 -12.68349,0 -23.28569,-6.01431 -23.28568,-23.43964 0,-0.85097 2.43912,-8.93313 2.48898,-9.7697 l 524.82747,-0.6404 z"
         fill="#ffffff"
         id="path15-4"
         style="stroke-width:1.53818"
         sodipodi:nodetypes="csscscscscscscscscscscscscccsccsccc" />
      <path
         d="m 126.72681,373.68881 c -21.004,0 -38.029998,15.99524 -38.029998,35.72234 h 76.059998 c 0,-19.72974 -17.026,-35.72234 -38.03,-35.72234 z"
         fill="#86646a"
         id="path17"
         style="stroke-width:1.14671"
         sodipodi:nodetypes="sccs" />
      <path
         d="m 56.470056,358.35409 c -21.004,0 -32.906811,19.41069 -32.906811,39.13779 l 72.646538,-1.70773 c -0.002,-19.72973 -18.735727,-37.43006 -39.739727,-37.43006 z m 699.733184,38.35193 c -24.544,0 -72.696,68.32822 -109.336,68.32822 h 181.338 c -34.42,-35.0149 -21.926,-68.32822 -72.002,-68.32822 z"
         fill="#86646a"
         id="path19"
         style="stroke-width:1.14671"
         sodipodi:nodetypes="sccssccs" />
      <path
         d="m 1055.0435,362.51466 c -15.204,-18.75929 -50.9316,-11.5933 -73.42756,-11.5933 -31.504,0 -58.692,22.79888 -73.374,56.28315 -8.43928,-7.55696 -18.41581,-11.59076 -28.626,-11.57433 -6.796,0 -13.256,1.82518 -19.186,4.9995 -12.366,-16.81315 -29.624,-27.3539 -48.814,-27.3539 -19.19,0 -36.45,10.54075 -48.812,27.3539 -5.93,-3.17432 -12.39,-4.9995 -19.188,-4.9995 -6.798,0 -13.256,1.82518 -19.186,4.9995 -12.364,-16.81315 -29.624,-27.3539 -48.814,-27.3539 -22.308,0 -41.93,14.3226 -54.33,36.14576 -22.24495,-22.18809 -64.75887,25.75323 -53.1127,45.51325 39.08199,16.34858 454.95666,7.75861 454.95666,7.75861 6.732,-26.4571 27.6996,-72.37249 31.9136,-100.17874 z m -1116.826132,0 c 15.204,-18.75929 50.9316,-11.5933 73.42756,-11.5933 31.504,0 58.692,22.79888 73.374,56.28315 8.43928,-7.55696 18.415812,-11.59076 28.626002,-11.57433 6.796,0 13.256,1.82518 19.186,4.9995 12.366,-16.81315 29.624,-27.3539 48.814,-27.3539 19.19,0 36.45,10.54075 48.812,27.3539 5.93,-3.17432 12.39,-4.9995 19.188,-4.9995 6.798,0 13.256,1.82518 19.186,4.9995 12.364,-16.81315 29.624,-27.3539 48.814,-27.3539 22.308,0 41.93,14.3226 54.33,36.14576 22.24495,-22.18809 64.75887,25.75323 53.1127,45.51325 -39.08199,16.34858 -454.956662,7.75861 -454.956662,7.75861 -6.732,-26.4571 -27.6996,-72.37249 -31.9136,-100.17874 z"
         fill="#52c883"
         id="path16"
         style="stroke-width:1.14671"
         inkscape:path-effect="#path-effect24"
         inkscape:original-d="m 1055.0435,362.51466 c -15.204,-18.75929 -50.9316,-11.5933 -73.42756,-11.5933 -31.504,0 -58.692,22.79888 -73.374,56.28315 -8.43928,-7.55696 -18.41581,-11.59076 -28.626,-11.57433 -6.796,0 -13.256,1.82518 -19.186,4.9995 -12.366,-16.81315 -29.624,-27.3539 -48.814,-27.3539 -19.19,0 -36.45,10.54075 -48.812,27.3539 -5.93,-3.17432 -12.39,-4.9995 -19.188,-4.9995 -6.798,0 -13.256,1.82518 -19.186,4.9995 -12.364,-16.81315 -29.624,-27.3539 -48.814,-27.3539 -22.308,0 -41.93,14.3226 -54.33,36.14576 -22.24495,-22.18809 -64.75887,25.75323 -53.1127,45.51325 39.08199,16.34858 454.95666,7.75861 454.95666,7.75861 6.732,-26.4571 27.6996,-72.37249 31.9136,-100.17874 z"
         sodipodi:nodetypes="cscccscscscccc"
         transform="translate(15.369566,52.939617)" />
    </g>
  </g>
</svg>
