<?xml version="1.0" encoding="UTF-8" standalone="no"?>
<!-- Uploaded to: SVG Repo, www.svgrepo.com, Transformed by: SVG Repo Mixer Tools -->

<svg
   version="1.1"
   id="Layer_1"
   viewBox="0 0 439.48 439.48"
   xml:space="preserve"
   width="800px"
   height="800px"
   fill="#000000"
   sodipodi:docname="lakePlant.svg"
   inkscape:version="1.4 (e7c3feb1, 2024-10-09)"
   xmlns:inkscape="http://www.inkscape.org/namespaces/inkscape"
   xmlns:sodipodi="http://sodipodi.sourceforge.net/DTD/sodipodi-0.dtd"
   xmlns="http://www.w3.org/2000/svg"
   xmlns:svg="http://www.w3.org/2000/svg"><defs
   id="defs16" /><sodipodi:namedview
   id="namedview16"
   pagecolor="#ffffff"
   bordercolor="#000000"
   borderopacity="0.25"
   inkscape:showpageshadow="2"
   inkscape:pageopacity="0.0"
   inkscape:pagecheckerboard="0"
   inkscape:deskcolor="#d1d1d1"
   inkscape:zoom="0.74953319"
   inkscape:cx="352.88631"
   inkscape:cy="344.21425"
   inkscape:window-width="1280"
   inkscape:window-height="1387"
   inkscape:window-x="2792"
   inkscape:window-y="25"
   inkscape:window-maximized="0"
   inkscape:current-layer="g9" />

<g
   id="SVGRepo_bgCarrier"
   stroke-width="0" />

<g
   id="SVGRepo_tracerCarrier"
   stroke-linecap="round"
   stroke-linejoin="round" />

<g
   id="SVGRepo_iconCarrier"> <g
   id="g16">       <g
   id="g9"
   transform="matrix(1.4658891,0,0,1.5070701,-187.84304,-133.21029)">    <path
   style="fill:#43ab5f;fill-opacity:1;stroke-width:2.24828;stroke-linecap:round;stroke-linejoin:round;paint-order:markers fill stroke"
   d="m 315.75978,150.38069 c 2.72629,11.04367 19.19778,93.47212 28.79665,140.20817 5.74634,27.97841 10.52177,55.18144 17.23902,83.93523 0.81579,3.49206 -10.37426,4.65092 -10.9849,1.11942 -3.34209,-19.32806 -4.1504,-32.71298 -11.16198,-47.42737 -5.98718,-12.5646 -19.20883,-27.16038 -25.61031,-33.2493 -6.40149,-6.08894 -1.14968,-10.36794 5.3106,-6.47346 6.4603,3.89448 19.90455,23.53203 18.0039,15.87351 -5.16617,-20.81674 -29.8617,-142.9323 -31.79068,-154.00949 -1.92897,-11.07718 7.47142,-11.0204 10.1977,0.0233 z"
   id="path17"
   sodipodi:nodetypes="zsssszzszz" /><path
   style="fill:#43ab5f;fill-opacity:1;stroke-width:2.24828;stroke-linecap:round;stroke-linejoin:round;paint-order:markers fill stroke"
   d="m 351.89502,144.86466 c 1.70842,11.23536 10.59796,94.76002 15.89693,142.14003 3.17221,28.36391 5.44806,55.87173 9.51665,85.09173 0.49412,3.54867 -10.75751,3.7375 -11.04369,0.16726 -0.18943,-5.58794 -23.57879,-216.66839 -24.52527,-228.30205 -0.91119,-11.19995 8.44697,-10.33233 10.15538,0.90303 z"
   id="path17-63"
   sodipodi:nodetypes="zssszz" /><path
   style="fill:#43ab5f;fill-opacity:1;stroke-width:2.24828;stroke-linecap:round;stroke-linejoin:round;paint-order:markers fill stroke"
   d="m 398.1929,141.64432 c 0.6637,8.82875 3.25342,88.98606 4.76416,134.46348 0.42763,12.87039 8.66458,-10.55127 14.4576,-17.31793 5.79302,-6.76664 10.19633,0.67269 5.28267,6.85185 -4.91364,6.17916 -19.28983,35.47675 -18.54855,49.35885 0.96493,18.07062 0.97164,36.20705 2.15219,55.07998 0.22359,3.57447 -11.01169,2.95532 -11.02628,-0.62573 -0.0798,-19.59937 1.3511,-32.93492 -3.11797,-48.55957 -3.81613,-13.34186 -14.43305,-29.8277 -19.73622,-36.84465 -5.30317,-7.01695 0.59174,-10.41217 6.31832,-5.55144 5.7266,4.86072 15.72372,26.35685 15.12331,18.50003 -1.63199,-21.35573 -5.66927,-145.74941 -5.72844,-156.98423 -0.0591,-11.23481 9.20769,-9.69798 10.05921,1.62936 z"
   id="path17-6"
   sodipodi:nodetypes="sszzsssszzszs" /></g>  <path
   style="fill:#745154;fill-opacity:1;stroke-width:1.48634"
   d="m 408.94455,113.96103 3.4598,70.89864 c 0.27326,5.59963 -1.6908,10.76526 -5.07017,14.59669 -3.37938,3.83147 -8.18799,6.34451 -13.63462,6.6103 -10.86398,0.53016 -20.13499,-8.10079 -20.68077,-19.285 l -3.4598,-70.89864 c -0.54505,-11.16918 7.84081,-20.67683 18.7048,-21.206986 10.8786,-0.530868 20.13571,8.115826 20.68076,19.284996 z"
   id="path11" />  <path
   style="fill:#86646a;fill-opacity:1;stroke-width:1.48634"
   d="m 342.22597,109.60797 9.18683,70.386 c 0.72558,5.55914 -0.81393,10.86679 -3.87211,14.95919 -3.05818,4.09241 -7.64762,6.98639 -13.05487,7.69215 -10.78541,1.40772 -20.72457,-6.44453 -22.17379,-17.54789 l -9.18682,-70.386 c -1.44727,-11.08841 6.14156,-21.243607 16.92697,-22.651325 10.79995,-1.409615 20.72653,6.45947 22.17379,17.547875 z"
   id="path13" /> <path
   style="fill:#86646a;fill-opacity:1;stroke-width:1.53539"
   d="m 296.82543,138.21017 14.9309,73.96978 c 1.17926,5.8422 0.0802,11.62651 -2.63219,16.25946 -2.71241,4.63295 -7.04938,8.1336 -12.38098,9.38382 -10.63454,2.49373 -21.18527,-4.93401 -23.54062,-16.60273 l -14.93092,-73.96977 c -2.35217,-11.65301 4.37865,-23.14961 15.01319,-25.64331 10.64888,-2.49708 21.18844,4.94973 23.54062,16.60275 z"
   id="path14"
   sodipodi:nodetypes="ssssssss" />    </g> </g>

</svg>
