<?xml version="1.0" encoding="UTF-8" standalone="no"?>
<!-- Uploaded to: SVG Repo, www.svgrepo.com, Transformed by: SVG Repo Mixer Tools -->

<svg
   width="800px"
   height="800px"
   viewBox="0 0 1024 1024"
   class="icon"
   version="1.1"
   fill="#000000"
   transform="rotate(90)"
   id="svg2"
   sodipodi:docname="leaves.svg"
   inkscape:version="1.4 (e7c3feb1, 2024-10-09)"
   xmlns:inkscape="http://www.inkscape.org/namespaces/inkscape"
   xmlns:sodipodi="http://sodipodi.sourceforge.net/DTD/sodipodi-0.dtd"
   xmlns="http://www.w3.org/2000/svg"
   xmlns:svg="http://www.w3.org/2000/svg">
  <defs
     id="defs2" />
  <sodipodi:namedview
     id="namedview2"
     pagecolor="#ffffff"
     bordercolor="#000000"
     borderopacity="0.25"
     inkscape:showpageshadow="2"
     inkscape:pageopacity="0.0"
     inkscape:pagecheckerboard="0"
     inkscape:deskcolor="#d1d1d1"
     inkscape:zoom="0.74953319"
     inkscape:cx="480.96603"
     inkscape:cy="461.62065"
     inkscape:window-width="1280"
     inkscape:window-height="1387"
     inkscape:window-x="2792"
     inkscape:window-y="25"
     inkscape:window-maximized="0"
     inkscape:current-layer="svg2"
     showguides="true" />
  <g
     id="SVGRepo_bgCarrier"
     stroke-width="0" />
  <g
     id="SVGRepo_tracerCarrier"
     stroke-linecap="round"
     stroke-linejoin="round" />
  <g
     id="SVGRepo_iconCarrier"
     transform="translate(-124.66426,0.13394)">
    <path
       style="fill:#4cbca4;fill-opacity:1;stroke-width:6.48602;stroke-linecap:round;stroke-linejoin:round;paint-order:markers fill stroke"
       d="M 318.89886,571.16022 C 300.00948,536.19197 284.70043,497.07616 283.33492,457.35562 281.5093,404.25065 288.95027,345.18414 320.32142,302.29683 419.65793,166.4945 587.67349,78.363023 752.77891,41.968813 c 79.51804,-24.55905 309.21779,-84.72123 258.90549,62.592527 -13.5068,50.32999 -21.29301,102.65492 -41.25419,150.79111 -17.08535,41.20118 -141.98791,321.82051 -411.11912,416.80937 -57.55475,11.8251 -123.47368,6.9466 -174.97458,-21.33838 -30.1208,-16.54272 -49.10498,-49.42801 -65.43765,-79.66322 z"
       id="path4"
       sodipodi:nodetypes="aaasaaaaa" />
    <path
       style="fill:#6cbdb1;fill-opacity:1;stroke-width:6.48602;stroke-linecap:round;stroke-linejoin:round;paint-order:markers fill stroke"
       d="m 285.30986,457.29635 c 0,0 -16.69309,-84.14855 32.71882,-151.50244 C 437.58846,142.82072 614.5747,64.904783 850.06519,14.880933 898.71082,4.5474232 960.2063,-6.3697368 998.9257,24.839023 c 6.5528,5.28169 15.7026,16.52035 18.2886,27.5291 3.9083,16.63794 -0.7173,33.3966 -0.7173,33.3966 C 935.76731,-2.4920168 460.36203,151.86929 285.30986,457.29635 Z"
       id="path4-5"
       sodipodi:nodetypes="csssscc" />
    <path
       style="fill:#a68f8a;fill-opacity:1;stroke-width:7.50548;stroke-linecap:round;stroke-linejoin:round;paint-order:markers fill stroke"
       d="M 910.27997,77.532743 327.4342,539.03537 355.19584,588.23089 964.73998,75.271633 Z"
       id="path3"
       sodipodi:nodetypes="ccccc" />
  </g>
</svg>
