<?xml version="1.0" encoding="UTF-8" standalone="no"?>
<!-- Uploaded to: SVG Repo, www.svgrepo.com, Generator: SVG Repo Mixer Tools -->

<svg
   width="800"
   height="600"
   viewBox="0 0 1024 768"
   class="icon"
   version="1.1"
   id="svg33"
   sodipodi:docname="meadow.svg"
   inkscape:version="1.4 (e7c3feb1, 2024-10-09)"
   xmlns:inkscape="http://www.inkscape.org/namespaces/inkscape"
   xmlns:sodipodi="http://sodipodi.sourceforge.net/DTD/sodipodi-0.dtd"
   xmlns="http://www.w3.org/2000/svg"
   xmlns:svg="http://www.w3.org/2000/svg">
  <defs
     id="defs33">
    <linearGradient
       id="swatch44"
       inkscape:swatch="solid">
      <stop
         style="stop-color:#000000;stop-opacity:1;"
         offset="0"
         id="stop44" />
    </linearGradient>
  </defs>
  <sodipodi:namedview
     id="namedview33"
     pagecolor="#ffffff"
     bordercolor="#000000"
     borderopacity="0.25"
     inkscape:showpageshadow="2"
     inkscape:pageopacity="0.0"
     inkscape:pagecheckerboard="0"
     inkscape:deskcolor="#d1d1d1"
     inkscape:zoom="0.90509668"
     inkscape:cx="402.71941"
     inkscape:cy="407.69125"
     inkscape:window-width="1280"
     inkscape:window-height="1387"
     inkscape:window-x="2792"
     inkscape:window-y="25"
     inkscape:window-maximized="0"
     inkscape:current-layer="g54"
     showguides="false" />
  <g
     id="g54"
     style="opacity:0.85">
    <g
       id="g55"
       style="opacity:1;mix-blend-mode:normal">
      <rect
         style="opacity:1;fill:#52c883;fill-opacity:1;stroke-width:1.28"
         id="rect55"
         width="1032.376"
         height="165.46298"
         x="-1.4142135"
         y="-5.6568542" />
      <path
         d="m 563.1909,115.73498 c 29.40563,-12.76604 60.60395,10.61532 83.615,0.18075 30.75576,-13.94599 37.92018,-17.778667 62.6712,-18.156297 22.59593,-0.34557 38.93797,14.595577 65.9599,-5.21807 19.42238,-14.24062 32.85579,-9.56708 49.60882,-1.98045 16.75303,7.58663 23.37116,4.46967 52.03315,-7.97824 18.9549,-8.23304 34.53016,-9.28892 67.03372,-1.44937 C 971.52604,87.745773 993.3686,66.32398 1024,74.24 c 33.5978,37.78234 16.8194,100.48114 1.0319,140.99195 -81.11177,-9.28403 -104.03873,-17.46023 -137.25518,-15.15931 -36.45495,2.52486 -319.31212,-11.78971 -360.9925,-13.32544 -47.36376,-1.74514 -38.96092,-39.45832 -38.96092,-39.45832 38.7136,-5.40051 55.93552,-23.11775 75.3676,-31.5539 z"
         fill="#36b294"
         id="path3"
         sodipodi:nodetypes="scccscccccscs"
         style="fill:#00a07d;fill-opacity:1;stroke-width:1.05421" />
      <path
         d="m 855.61391,200.48261 a 6.6251759,5.5763657 0 0 1 -6.6278,-5.57526 v -60.04417 a 6.6251759,5.5763657 0 0 1 6.6278,-5.57526 6.6251759,5.5763657 0 0 1 6.6278,5.57526 v 60.04417 a 6.6238645,5.5752619 0 0 1 -6.6278,5.57526 z"
         fill="#674447"
         id="path5"
         style="stroke-width:0.601563" />
      <path
         d="m 897.35829,129.7482 c 0,19.4058 -18.69002,35.13706 -41.74569,35.13706 -23.05567,0 -41.74569,-15.73126 -41.74569,-35.13706 0,-19.4058 18.69002,-79.059217 41.74569,-79.059217 23.05567,7.6e-4 41.74569,59.653417 41.74569,79.059217 z"
         fill="#43ab5f"
         id="path6"
         style="stroke-width:0.601563" />
      <path
         d="m 855.6126,50.688983 c -5.78719,0 -11.29899,3.76504 -16.30984,9.70344 h 0.002 c 21.10168,0 38.20754,54.598057 38.20754,72.359197 0,15.4498 -12.95398,28.33108 -30.21196,31.42832 2.68705,0.45697 5.4646,0.70532 8.31164,0.70532 23.05566,0 41.74568,-15.73126 41.74568,-35.13706 0.002,-19.4058 -18.69002,-79.059217 -41.74437,-79.059217 z"
         fill="#71be63"
         id="path7"
         style="stroke-width:0.601563" />
      <path
         d="m 527.756,182.04459 c -13.46,0 -15.704,-13.31 -17.024,-16 -14.732,-30 -32.566,-16 -61.826,-16 -22.876,0 -27.552,-33.334 -40.32,-32 -12.768,1.334 -33.338,22.666 -51.072,16 -25.448,-9.568 -26.246,-24 -51.074,-32 -21.908,-7.059997 -40.432,-2 -51.074,-15.999997 -20.718,-27.26 -35.644,2.5 -68.098,-16 -33.006,-18.816 -43.27,16 -68.096,16 -26.082,0 -17.026,-32 -51.074,-32 C 48.81,54.044593 24.396,67.59 0,74.24 -8.44,110.864 3.2776604e-8,158.90059 3.2776604e-8,198.04459 3.2776604e-8,218.22859 1.316,238.09859 3.62,257.67059 c 7.83,7.266 16.296,13.656 24.786,17.302 30.438,13.072 669.594,24.302 669.594,24.302 v -53.23 c -46.818,0 -46.818,-32 -85.122,-32 -51.606,0 -46.818,-32 -85.122,-32 z"
         fill="#00a07d"
         id="path9"
         sodipodi:nodetypes="scssccccsscsccccss"
         style="fill:#00a07d;fill-opacity:1" />
      <path
         d="m 505.32799,591.32436 568.16951,-47.87612 -49.601,-345.40365 c -114.76996,0 -661.8285,-41.334 -1023.896499967223007,0 C -24.041631,307.19381 -43.294918,463.44928 -44.415415,550.51931 -45.69259,649.76426 505.32799,591.32436 505.32799,591.32436 Z"
         fill="#94d75b"
         id="path10"
         sodipodi:nodetypes="ccccsc" />
      <path
         d="M 982.74969,286.56049 C 435.30569,227.387 456.94838,177.17578 34.388098,196.93383 410.07628,197.23289 864.66062,327.80073 982.63871,327.80073 l 45.68419,-29.72868 5.8573,-5.21512 z"
         fill="#b0eb81"
         id="path11"
         sodipodi:nodetypes="cccccc"
         style="stroke-width:1.31913" />
      <path
         d="M 1040.709,524.57809 C 960.39705,702.28209 725.1585,763.7847 517.4745,763.7847 295.56536,763.7847 69.859942,799.3872 -1.1899681,601.95165 -16.860835,549.27766 -3.8518402,204.95084 0,288 189.49606,288.86903 339.60034,310.18002 535.93915,369.02573 667.64731,408.50066 815.9959,288 1024,288 Z"
         fill="#71be63"
         id="path13"
         sodipodi:nodetypes="csscscc"
         style="fill:#63be66;fill-opacity:1" />
      <path
         d="m 591.22974,191.5675 a 8.2115236,6.8855945 0 0 1 -8.21582,-6.88319 v -74.14055 c 0,-3.80131 3.67535,-6.88319 8.21582,-6.88319 4.54047,0 8.21439,3.08188 8.21439,6.88319 v 74.14055 a 8.2100912,6.8843934 0 0 1 -8.21439,6.88319 z"
         fill="#674447"
         id="path14"
         style="stroke-width:0.655799" />
      <path
         d="m 642.96678,104.22867 c 0,23.96086 -23.165,43.38537 -51.7399,43.38537 -28.5749,0 -51.73991,-19.42451 -51.73991,-43.38537 0,-23.960857 23.16501,-97.618592 51.73991,-97.618592 28.5749,0 51.7399,73.656525 51.7399,97.618592 z"
         fill="#43ab5f"
         id="path15"
         style="stroke-width:0.655799" />
      <path
         d="m 591.22688,6.610078 c -7.17309,0 -14.00385,4.64925 -20.21442,11.98163 h 10e-4 c 26.15426,0 47.35555,67.414695 47.35555,89.345782 0,19.07621 -16.05494,34.98166 -37.44529,38.80699 3.33015,0.56449 6.77347,0.87076 10.30128,0.87076 28.5749,0 51.74134,-19.42451 51.74134,-43.38537 0.001,-23.963267 -23.165,-97.619792 -51.7399,-97.619792 z"
         fill="#71be63"
         id="path16"
         style="stroke-width:0.655799" />
      <path
         d="M 1024,479.95058 C 923.07783,480.52869 940.61516,436.38378 746.36586,442.08228 598.06791,446.43276 570.17169,559.61089 347.94131,509.42731 269.67345,491.75305 157.21356,475.95714 0,479.95058 -24.822073,598.95356 -71.03467,789.47376 7.1598304,816.31219 120.71298,855.28654 434.06997,801.26817 514.82842,801.26817 c 114.97266,0 489.49948,121.8284 511.99998,0 25.7998,-139.69231 45.1909,-229.01844 -2.8284,-321.31759 z"
         fill="#43ab5f"
         id="path17"
         sodipodi:nodetypes="csscsssc"
         style="fill:#43ab64;fill-opacity:1;stroke-width:1.08055" />
      <path
         d="m 392.49621,645.60399 m -13.334,0 a 13.334,13.334 0 1 0 26.668,0 13.334,13.334 0 1 0 -26.668,0 z"
         fill="#b0eb81"
         id="path18" />
      <path
         d="m 378.38068,430.81923 m -13.334,0 a 13.334,13.334 0 1 0 26.668,0 13.334,13.334 0 1 0 -26.668,0 z"
         fill="#94d75b"
         id="path19" />
      <path
         d="m 812.71778,360.35904 m -13.334,0 a 13.334,13.334 0 1 0 26.668,0 13.334,13.334 0 1 0 -26.668,0 z"
         fill="#94d75b"
         id="path20"
         inkscape:transform-center-x="7.0710678"
         inkscape:transform-center-y="-63.639611" />
      <path
         d="m 592.94421,666.93599 m -13.334,0 a 13.334,13.334 0 1 0 26.668,0 13.334,13.334 0 1 0 -26.668,0 z"
         fill="#71be63"
         id="path21" />
      <path
         d="m 664.79621,584.26999 m -13.334,0 a 13.334,13.334 0 1 0 26.668,0 13.334,13.334 0 1 0 -26.668,0 z"
         fill="#b0eb81"
         id="path22" />
      <path
         d="m 513.41421,603.23399 m -13.334,0 a 13.334,13.334 0 1 0 26.668,0 13.334,13.334 0 1 0 -26.668,0 z"
         fill="#71be63"
         id="path23" />
      <path
         d="m 289.41421,658.93599 m -13.334,0 a 13.334,13.334 0 1 0 26.668,0 13.334,13.334 0 1 0 -26.668,0 z"
         fill="#71be63"
         id="path24" />
      <path
         d="m 477.37601,554.136 m -13.334,0 a 13.334,13.334 0 1 0 26.668,0 13.334,13.334 0 1 0 -26.668,0 z"
         fill="#b0eb81"
         id="path18-4"
         style="opacity:0.85" />
      <path
         d="m 539.62801,397.334 m -13.334,0 a 13.334,13.334 0 1 0 26.668,0 13.334,13.334 0 1 0 -26.668,0 z"
         fill="#94d75b"
         id="path19-4"
         style="opacity:0.85" />
      <path
         d="m 123.97821,591.50963 m -13.334,0 a 13.334,13.334 0 1 0 26.668,0 13.334,13.334 0 1 0 -26.668,0 z"
         fill="#71be63"
         id="path24-1"
         style="opacity:0.85" />
      <path
         d="m 302.74821,546.36399 m -13.334,0 a 13.334,13.334 0 1 0 26.668,0 13.334,13.334 0 1 0 -26.668,0 z"
         fill="#b0eb81"
         id="path25" />
      <path
         d="m 649.78479,437.52178 m -13.334,0 a 13.334,13.334 0 1 0 26.668,0 13.334,13.334 0 1 0 -26.668,0 z"
         fill="#b0eb81"
         id="path26" />
      <path
         d="m 182.0605,426.5589 m -13.334,0 a 13.334,13.334 0 1 0 26.668,0 13.334,13.334 0 1 0 -26.668,0 z"
         fill="#94d75b"
         id="path27" />
      <path
         d="m 758.32821,526.36399 m -13.334,0 a 13.334,13.334 0 1 0 26.668,0 13.334,13.334 0 1 0 -26.668,0 z"
         fill="#b0eb81"
         id="path28" />
      <path
         d="m 887.41821,488.80199 m -13.334,0 a 13.334,13.334 0 1 0 26.668,0 13.334,13.334 0 1 0 -26.668,0 z"
         fill="#b0eb81"
         id="path29" />
      <path
         d="m 640.50021,513.02999 m -13.334,0 a 13.334,13.334 0 1 0 26.668,0 13.334,13.334 0 1 0 -26.668,0 z"
         fill="#71be63"
         id="path30" />
      <path
         d="m 758.32821,615.36599 m -13.334,0 a 13.334,13.334 0 1 0 26.668,0 13.334,13.334 0 1 0 -26.668,0 z"
         fill="#71be63"
         id="path31" />
      <path
         d="m 798.74821,452.26999 m -13.334,0 a 13.334,13.334 0 1 0 26.668,0 13.334,13.334 0 1 0 -26.668,0 z"
         fill="#71be63"
         id="path32" />
      <path
         d="m 887.41821,374.83199 m -13.334,0 a 13.334,13.334 0 1 0 26.668,0 13.334,13.334 0 1 0 -26.668,0 z"
         fill="#71be63"
         id="path33" />
    </g>
  </g>
</svg>
