<?xml version="1.0" encoding="UTF-8" standalone="no"?>
<!-- Uploaded to: SVG Repo, www.svgrepo.com, Generator: SVG Repo Mixer Tools -->

<svg
   width="800"
   height="600"
   viewBox="0 0 1024 768"
   class="icon"
   version="1.1"
   id="svg33"
   sodipodi:docname="sea.svg"
   inkscape:version="1.4 (e7c3feb1, 2024-10-09)"
   xmlns:inkscape="http://www.inkscape.org/namespaces/inkscape"
   xmlns:sodipodi="http://sodipodi.sourceforge.net/DTD/sodipodi-0.dtd"
   xmlns="http://www.w3.org/2000/svg"
   xmlns:svg="http://www.w3.org/2000/svg">
  <defs
     id="defs33" />
  <sodipodi:namedview
     id="namedview33"
     pagecolor="#ffffff"
     bordercolor="#000000"
     borderopacity="0.25"
     inkscape:showpageshadow="2"
     inkscape:pageopacity="0.0"
     inkscape:pagecheckerboard="0"
     inkscape:deskcolor="#d1d1d1"
     inkscape:zoom="0.74953319"
     inkscape:cx="415.59201"
     inkscape:cy="520.32386"
     inkscape:window-width="1280"
     inkscape:window-height="1387"
     inkscape:window-x="2792"
     inkscape:window-y="25"
     inkscape:window-maximized="0"
     inkscape:current-layer="svg33" />
  <g
     id="g34"
     style="opacity:0.7">
    <rect
       style="fill:#b3f4ef;fill-opacity:1;stroke-width:1.28"
       id="rect33"
       width="1282.5049"
       height="124.66425"
       x="-83.678749"
       y="-11.954108" />
    <path
       d="M 1038.6091,71.326048 C 1042.7801,55.120784 1129.1356,16.589648 1024,19.2 957.70561,20.845986 764.04003,49.774494 703.38389,50.863891 630.32113,52.176113 536.02878,23.871065 464.283,21.927603 392.53721,19.984142 325.81188,29.23277 274.91251,34.496057 224.01314,39.759344 207.92824,51.675276 158.81886,50.833293 109.70947,49.99131 87.776194,16.491527 0,19.2 -87.776194,21.908473 -15.265713,389.69804 -15.265713,389.69804 152.78768,390.72026 917.5949,404.23259 1084.8643,432.77821 1106.2558,292.01271 1014.0461,166.75905 1038.6091,71.326048 Z"
       fill="#57b9e7"
       id="path7"
       sodipodi:nodetypes="ssszzzzccs"
       style="fill:#8be5ee;fill-opacity:1" />
    <path
       d="M 1.7077296,58.88 C 114.67372,58.026529 76.957978,41.698397 160.88601,57.567461 c 69.84845,13.2069 102.30994,50.739139 135.49655,51.335169 73.06276,1.31222 184.43241,-30.408279 249.34727,-52.844499 64.91486,-22.436224 155.54842,34.62883 196.20141,17.69164 40.65299,-16.93719 66.98427,17.17922 116.09365,16.33724 C 907.13428,89.245031 960.13199,56.171528 1024,58.88 c 63.868,2.708472 8.1094,370.07176 8.1094,370.07176 C 864.05607,429.97398 99.248851,443.48631 -68.020518,472.03193 -89.412018,331.26643 -96.832851,59.624486 1.7077296,58.88 Z"
       fill="#57b9e7"
       id="path7-7"
       sodipodi:nodetypes="ssszzzzccs" />
    <path
       d="m 0,179.2 c 57.879701,-10.76443 47.879338,17.44514 124.02154,-25.15427 64.72526,-36.21194 73.40251,-12.71829 210.63665,15.14999 81.33178,16.51613 231.43449,-23.14742 380.83296,-28.72713 C 846.73558,135.56689 930.28042,173.70471 1024,179.2 c 118.316,6.93751 19.0614,351.64164 19.0614,351.64164 C 875.00805,531.96671 110.20081,546.83847 -57.068559,578.25597 -78.460059,423.32851 -124.00948,202.2632 0,179.2 Z"
       fill="#57b9e7"
       id="path7-7-2"
       sodipodi:nodetypes="sssssccs"
       style="fill:#1e6ad5;fill-opacity:1;stroke-width:1.0491" />
    <path
       style="fill:#00ab91;fill-opacity:1;stroke:none;stroke-width:7.78624;stroke-linecap:round;stroke-linejoin:round;stroke-dasharray:none;stroke-opacity:1;paint-order:markers fill stroke"
       d="m 606.56723,476.18494 c -2.6138,-15.37943 25.22535,-6.36122 22.47872,-21.72847 -2.59176,-14.5008 -27.23457,-11.76729 -28.86644,-26.32743 -1.72345,-15.37722 38.27174,-7.7255 37.71204,-23.09039 -0.55348,-15.1944 -38.41427,-11.36182 -39.09291,-26.5618 -0.57273,-12.8282 32.94132,-7.00317 31.10717,-19.81967 -2.3042,-16.101 -40.68747,-4.11708 -45.48501,-19.86409 -3.74249,-12.28401 12.84226,-20.86453 22.05315,-28.58245 8.98012,-7.52454 23.47169,-26.43188 31.31995,-16.39269 9.30487,11.90245 -31.00165,15.63195 -28.76441,30.1397 2.02331,13.12049 29.18153,10.34971 33.76689,23.01761 4.29037,11.85293 -13.76098,21.71199 -11.50751,33.95732 2.32281,12.62219 25.53919,18.92202 24.07237,31.35069 -1.19097,10.0912 -23.61887,6.40025 -24.5023,16.54895 -1.39296,16.00198 34.50663,22.41435 33.01998,38.39997 -1.24755,13.41468 -19.22216,21.03671 -32.70519,21.4941 -8.84737,0.30014 -23.09226,-3.63168 -24.6065,-12.54135 z"
       id="path34"
       sodipodi:nodetypes="csssssssssssssscc" />
    <path
       style="fill:#00ab72;fill-opacity:1;stroke:none;stroke-width:8.3196;stroke-linecap:round;stroke-linejoin:round;stroke-dasharray:none;stroke-opacity:1;paint-order:markers fill stroke"
       d="m 659.93196,482.1835 c -3.04244,-16.78564 26.16567,-7.46015 22.98501,-24.22985 -3.00132,-15.82417 -28.63461,-12.347 -30.6365,-28.25501 -2.1142,-16.80073 39.73817,-9.21028 38.83739,-26.02039 -0.89076,-16.62359 -40.2809,-11.68327 -41.30227,-28.31051 -0.86197,-14.03275 34.1962,-8.31467 32.01946,-22.30981 -2.73459,-17.58168 -42.50108,-3.70719 -47.82762,-20.8523 -4.15516,-13.37466 12.95699,-23.09453 22.39982,-31.72505 9.20625,-8.41428 23.92303,-29.39856 32.31204,-18.56222 9.94597,12.84755 -31.99593,17.72312 -29.36405,33.56187 2.38022,14.32421 30.63503,10.75678 35.67679,24.53513 4.71741,12.89195 -13.89725,24.04038 -11.29516,37.40197 2.68215,13.77279 27.01495,20.21316 25.74248,33.84863 -1.03318,11.07102 -24.49013,7.47129 -25.20152,18.59921 -1.12169,17.54599 36.4355,23.86016 35.21579,41.39008 -1.02352,14.7106 -19.60438,23.40849 -33.65078,24.17436 -9.21705,0.50256 -24.14832,-3.52179 -25.91088,-13.24611 z"
       id="path34-4"
       sodipodi:nodetypes="csssssssssssssscc" />
    <path
       style="fill:#00ab91;fill-opacity:1;stroke:none;stroke-width:6.08295;stroke-linecap:round;stroke-linejoin:round;stroke-dasharray:none;stroke-opacity:1;paint-order:markers fill stroke"
       d="m 709.12502,514.74926 c -2.82218,-12.81898 17.79328,-6.67531 14.87613,-19.47709 -2.75267,-12.08001 -20.34742,-8.49102 -22.41187,-20.67111 -2.18028,-12.8636 27.11337,-8.50556 25.77262,-21.41953 -1.32589,-12.77066 -28.38054,-7.56589 -29.79697,-20.33472 -1.19541,-10.77641 23.31548,-7.61885 21.21162,-18.31955 -2.64303,-13.44299 -29.577,-1.34437 -33.99553,-14.35901 -3.44684,-10.15254 7.98329,-18.24634 14.15128,-25.22861 6.01346,-6.8073 15.3049,-23.49102 21.57406,-15.44381 7.43267,9.54078 -21.39106,14.78637 -18.89348,26.89072 2.25875,10.94691 21.66422,7.19524 25.74198,17.62716 3.81543,9.7608 -8.59378,19.00818 -6.22253,29.20585 2.44422,10.51152 19.56195,14.60656 19.26294,25.15287 -0.24276,8.56286 -16.63303,6.62433 -16.65063,15.21958 -0.0278,13.55255 26.23835,17.08036 26.14206,30.62404 -0.0808,11.36546 -12.57116,18.72438 -22.26126,19.81347 -6.35851,0.71465 -16.86549,-1.8539 -18.50042,-9.28026 z"
       id="path34-7"
       sodipodi:nodetypes="csssssssssssssscc" />
    <path
       style="fill:#00ab6c;fill-opacity:1;stroke:none;stroke-width:4.05172;stroke-linecap:round;stroke-linejoin:round;stroke-dasharray:none;stroke-opacity:1;paint-order:markers fill stroke"
       d="m 762.8182,491.4277 c 0.95517,-11.39597 -9.21827,-4.71358 -8.21455,-16.10052 0.94712,-10.74492 9.95251,-8.71942 10.54885,-19.50831 0.62981,-11.39432 -13.98589,-5.7245 -13.78136,-17.10969 0.20227,-11.25886 14.03798,-8.41897 14.28598,-19.68196 0.2093,-9.50554 -12.03796,-5.18926 -11.3677,-14.68613 0.84204,-11.93064 14.86869,-3.05071 16.62189,-14.71904 1.36764,-9.1023 -4.69303,-15.46036 -8.05903,-21.17924 -3.28166,-5.57559 -8.57741,-19.58569 -11.44545,-12.14678 -3.40034,8.81957 11.32913,11.58308 10.51157,22.33314 -0.7394,9.72212 -10.664,7.66901 -12.33966,17.05576 -1.56786,8.78288 5.02876,16.08832 4.20526,25.16196 -0.84883,9.35289 -9.33295,14.02098 -8.79692,23.23046 0.43523,7.47746 8.6312,4.74251 8.95404,12.26258 0.50904,11.85726 -12.60999,16.60875 -12.06671,28.45389 0.4559,9.94012 7.02448,15.58795 11.95167,15.92687 3.23315,0.2224 8.43876,-2.69103 8.99212,-9.29299 z"
       id="path34-1"
       sodipodi:nodetypes="csssssssssssssscc" />
    <path
       style="fill:#00ab75;fill-opacity:1;stroke:none;stroke-width:7.21226;stroke-linecap:round;stroke-linejoin:round;stroke-dasharray:none;stroke-opacity:1;paint-order:markers fill stroke"
       d="m 502.07626,465.2846 c -0.41472,-15.66526 22.05608,-3.89171 21.52771,-19.55783 -0.49857,-14.78283 -21.63931,-14.4683 -21.3199,-29.21615 0.33733,-15.57546 33.23873,-3.97518 34.55792,-19.42382 1.30458,-15.27721 -31.13287,-15.16179 -29.93341,-30.45691 1.01233,-12.90849 28.65057,-3.77586 28.59567,-16.79671 -0.0689,-16.35772 -33.89861,-8.12714 -36.1156,-24.37547 -1.72944,-12.6751 13.28462,-19.64022 21.96755,-26.46649 8.46538,-6.65522 22.91532,-24.17235 28.37576,-13.34239 6.47386,12.83998 -28.01808,12.61155 -27.81987,27.36646 0.17926,13.34402 23.44974,13.23958 25.84658,26.38219 2.24266,12.29711 -14.15974,20.39889 -13.68394,32.88875 0.49045,12.87425 19.37231,21.46961 16.68326,33.77719 -2.18331,9.99289 -20.70324,4.08884 -22.6334,14.16959 -3.0434,15.89484 26.54199,25.85057 23.42133,41.7198 -2.61877,13.31701 -18.6954,19.18513 -30.14121,18.31707 -7.51059,-0.56961 -19.08819,-5.91002 -19.32845,-14.98528 z"
       id="path34-18"
       sodipodi:nodetypes="csssssssssssssscc" />
    <path
       style="fill:#00ab8e;fill-opacity:1;stroke:none;stroke-width:7.29365;stroke-linecap:round;stroke-linejoin:round;stroke-dasharray:none;stroke-opacity:1;paint-order:markers fill stroke"
       d="m 813.93892,498.34793 c 3.71265,-15.09979 -21.44778,-8.3904 -17.62022,-23.46723 3.61175,-14.22675 24.88766,-9.49587 27.66629,-23.85996 2.93455,-15.17018 -32.71938,-10.81249 -30.8027,-26.06528 1.89538,-15.08353 34.61745,-8.18063 36.62271,-23.25952 1.69234,-12.72601 -28.12942,-9.65868 -25.33609,-22.27019 3.50921,-15.84347 35.93034,-0.7819 41.58502,-16.06962 4.41115,-11.92573 -9.28132,-21.82134 -16.61154,-30.25686 -7.14659,-8.22416 -18.05074,-28.23125 -25.84042,-18.87538 -9.23541,11.0923 25.633,18.09198 22.33035,32.35456 -2.98685,12.89876 -26.45696,7.92568 -31.64016,20.16491 -4.84976,11.45185 10.00525,22.74004 6.89862,34.74866 -3.20221,12.3782 -24.07124,16.75787 -23.94455,29.25237 0.10288,10.14464 20.04061,8.29827 19.86945,18.4751 -0.26987,16.04632 -32.2304,19.50395 -32.4169,35.54162 -0.1565,13.45836 14.83931,22.51294 26.57666,24.06767 7.70186,1.02019 20.51266,-1.73319 22.66348,-10.48085 z"
       id="path34-5"
       sodipodi:nodetypes="csssssssssssssscc"
       inkscape:transform-center-x="-3.2120764"
       inkscape:transform-center-y="3.4507406" />
    <path
       d="M 1024,518.4 C 922.29332,525.07458 573.65055,440.59391 374.01009,482.20817 214.18961,515.52211 184.34435,513.0768 7.3518785,518.4 -196.99497,524.54591 -7.3518785,822.39084 -7.3518785,822.39084 160.70146,823.36313 918.1568,836.21542 1085.4262,863.36666 1106.8177,729.47718 1124.1013,511.83077 1024,518.4 Z"
       fill="#57b9e7"
       id="path7-7-9"
       sodipodi:nodetypes="sssccs"
       style="stroke-width:0.975271" />
    <path
       d="M 1024,608 C 907.14826,614.06536 733.99709,494.75119 498.75872,539.46412 274.77879,582.0371 60.60142,593.18187 0,608 c -60.60142,14.81812 -39.151568,60.39116 -39.151568,60.39116 0,0 -44.209594,105.56747 88.959216,154.47257 36.930942,1.32152 410.189832,-10.8375 448.951072,-10.8375 124.28404,0 404.46312,-10.81524 503.75128,-23.12505 C 1094.4414,742.75339 1140.8517,601.93464 1024,608 Z"
       fill="#b3f4ef"
       id="path8"
       style="stroke-width:1.1754"
       sodipodi:nodetypes="zszccscz" />
    <path
       d="m 1024,665.6 c 0,0 -390.44004,-30.11285 -569.74393,-29.25896 C 274.95218,637.19493 0,665.6 0,665.6 L -34.468678,729.33574 1057.3814,720.79709 C 1079.7146,705.94109 1183.9778,654.62833 1024,665.6 Z"
       fill="#ffffff"
       id="path9"
       style="stroke-width:1.29302"
       sodipodi:nodetypes="czcccc" />
    <path
       d="m 1024,678.4 c 0,0 -437.22944,-33.47738 -569.78072,-23.51345 C 321.66801,664.85048 178.11677,675.86929 0,678.4 c 0,0 -42.821687,120.26216 -12.304544,180.74934 11.73991609,23.26937 20.2000371,39.3799 21.1194621,39.3799 2.1408599,0 599.2126419,-35.088 894.1370419,-15.2343 38.64455,-3.3449 86.61534,13.4868 122.78334,9.3747 C 1118.1689,873.58372 1162.7011,682.43546 1024,678.4 Z"
       fill="#fff8db"
       id="path10"
       style="stroke-width:1.91522"
       sodipodi:nodetypes="czcssccc" />
    <path
       d="m 1097.822,819.59901 c -70.0017,-32 -111.51387,-59.39681 -152.99792,-106.06281 -24.46739,-27.526 -194.52018,59.5092 -247.48047,36.3092 -70.00167,-30.666 -100.27012,-8.68773 -134.32106,-50.52173 -43.75105,-53.75 -505.371019,356.01643 -322.17875,276.73505 103.23175,-68.5807 -439.05363,187.36358 1000.7677,63.31088 118.2266,-10.1862 103.5901,14.792 262.9229,-64.81406 l -278.2905,-63.18599 c -69.7901,-15.84587 -86.952,-72.81254 -128.4219,-91.77054 z"
       fill="#8c665b"
       id="path20"
       sodipodi:nodetypes="cccccscsc"
       style="stroke-width:1.32875" />
    <path
       d="m -175.9016,759.25423 c -75.26725,-57.338 -225.41137,-239.7108 -333.72784,-243.1128 172.07358,208.38202 193.43231,354.61283 803.23141,354.61283 266.55993,0 1009.02283,-23.93881 1218.79093,-73.91281 -67.9459,-3.732 -144.1953,-11.63256 -277.2787,9.886 C 1167.5598,817.65047 1089.3896,725.44757 1024,744.96 c -172.90723,-8 -470.49617,22.72421 -582.72015,-11.77579 -143.91935,-44.242 -104.81763,38.69324 -220.5297,19.69124 -115.71205,-19 -83.42323,-6.68757 -129.835473,-25.62557 C 60.77145,714.95218 46.155545,741.57324 0,744.96 c -56.701454,4.16059 -110.37255,64.21565 -175.9016,14.29423 z"
       fill="#674447"
       id="path33"
       sodipodi:nodetypes="ccscsccccsc"
       style="stroke-width:1.62928" />
  </g>
</svg>
