<?xml version="1.0" encoding="UTF-8" standalone="no"?>
<!-- Uploaded to: SVG Repo, www.svgrepo.com, Generator: SVG Repo Mixer Tools -->

<svg
   width="800"
   height="600"
   viewBox="0 0 1024 768"
   class="icon"
   version="1.1"
   id="svg33"
   sodipodi:docname="meadow.svg"
   inkscape:version="1.4 (e7c3feb1, 2024-10-09)"
   xmlns:inkscape="http://www.inkscape.org/namespaces/inkscape"
   xmlns:sodipodi="http://sodipodi.sourceforge.net/DTD/sodipodi-0.dtd"
   xmlns="http://www.w3.org/2000/svg"
   xmlns:svg="http://www.w3.org/2000/svg">
  <defs
     id="defs33">
    <linearGradient
       id="swatch44"
       inkscape:swatch="solid">
      <stop
         style="stop-color:#000000;stop-opacity:1;"
         offset="0"
         id="stop44" />
    </linearGradient>
  </defs>
  <sodipodi:namedview
     id="namedview33"
     pagecolor="#ffffff"
     bordercolor="#000000"
     borderopacity="0.25"
     inkscape:showpageshadow="2"
     inkscape:pageopacity="0.0"
     inkscape:pagecheckerboard="0"
     inkscape:deskcolor="#d1d1d1"
     inkscape:zoom="0.90509668"
     inkscape:cx="399.40485"
     inkscape:cy="407.69125"
     inkscape:window-width="1280"
     inkscape:window-height="1387"
     inkscape:window-x="2792"
     inkscape:window-y="25"
     inkscape:window-maximized="0"
     inkscape:current-layer="g55"
     showguides="true" />
  <g
     id="g54"
     style="opacity:0.704">
    <g
       id="g55"
       style="opacity:1;mix-blend-mode:normal">
      <rect
         style="opacity:1;fill:#52c883;fill-opacity:1;stroke-width:1.28"
         id="rect55"
         width="1032.376"
         height="165.46298"
         x="-1.4142135"
         y="-5.6568542" />
      <path
         d="m 563.1909,120.85498 c 29.40563,-12.76604 60.60395,10.61532 83.615,0.18075 30.75576,-13.94599 37.92018,-17.77867 62.6712,-18.1563 22.59593,-0.34557 38.93797,14.59558 65.9599,-5.218067 19.42238,-14.24062 32.85579,-9.56708 49.60882,-1.98045 16.75303,7.586627 23.37116,4.469667 52.03315,-7.97824 18.9549,-8.23304 34.53016,-9.28892 67.03372,-1.44937 C 971.52604,92.865773 993.3686,71.44398 1024,79.36 c 33.5978,37.78234 16.8194,100.48114 1.0319,140.99195 -81.11177,-9.28403 -104.03873,-17.46023 -137.25518,-15.15931 -36.45495,2.52486 -319.31212,-11.78971 -360.9925,-13.32544 -47.36376,-1.74514 -38.96092,-39.45832 -38.96092,-39.45832 38.7136,-5.40051 55.93552,-23.11775 75.3676,-31.5539 z"
         fill="#36b294"
         id="path3"
         sodipodi:nodetypes="scccscccccscs"
         style="fill:#00a07d;fill-opacity:1;stroke-width:1.05421" />
      <path
         d="m 855.61391,200.48261 a 6.6251759,5.5763657 0 0 1 -6.6278,-5.57526 v -60.04417 a 6.6251759,5.5763657 0 0 1 6.6278,-5.57526 6.6251759,5.5763657 0 0 1 6.6278,5.57526 v 60.04417 a 6.6238645,5.5752619 0 0 1 -6.6278,5.57526 z"
         fill="#674447"
         id="path5"
         style="stroke-width:0.601563" />
      <path
         d="m 897.35829,129.7482 c 0,19.4058 -18.69002,35.13706 -41.74569,35.13706 -23.05567,0 -41.74569,-15.73126 -41.74569,-35.13706 0,-19.4058 18.69002,-79.059217 41.74569,-79.059217 23.05567,7.6e-4 41.74569,59.653417 41.74569,79.059217 z"
         fill="#43ab5f"
         id="path6"
         style="stroke-width:0.601563" />
      <path
         d="m 855.6126,50.688983 c -5.78719,0 -11.29899,3.76504 -16.30984,9.70344 h 0.002 c 21.10168,0 38.20754,54.598057 38.20754,72.359197 0,15.4498 -12.95398,28.33108 -30.21196,31.42832 2.68705,0.45697 5.4646,0.70532 8.31164,0.70532 23.05566,0 41.74568,-15.73126 41.74568,-35.13706 0.002,-19.4058 -18.69002,-79.059217 -41.74437,-79.059217 z"
         fill="#71be63"
         id="path7"
         style="stroke-width:0.601563" />
      <path
         d="m 527.756,182.04459 c -13.46,0 -15.704,-13.31 -17.024,-16 -14.732,-30 -32.566,-16 -61.826,-16 -22.876,0 -27.552,-33.334 -40.32,-32 -12.768,1.334 -33.338,22.666 -51.072,16 -25.448,-9.568 -26.246,-24 -51.074,-32 -21.908,-7.059997 -40.432,-2 -51.074,-15.999997 -20.718,-27.26 -35.644,2.5 -68.098,-16 -33.006,-18.816 -43.27,16 -68.096,16 -26.082,0 -17.026,-32 -51.074,-32 C 48.81,54.044593 24.396,67.59 0,74.24 -8.44,110.864 3.2776604e-8,158.90059 3.2776604e-8,198.04459 3.2776604e-8,218.22859 1.316,238.09859 3.62,257.67059 c 7.83,7.266 16.296,13.656 24.786,17.302 30.438,13.072 669.594,24.302 669.594,24.302 v -53.23 c -46.818,0 -46.818,-32 -85.122,-32 -51.606,0 -46.818,-32 -85.122,-32 z"
         fill="#00a07d"
         id="path9"
         sodipodi:nodetypes="scssccccsscsccccss"
         style="fill:#00a07d;fill-opacity:1" />
      <path
         d="m 505.32799,603.95523 568.16951,-48.34988 -49.601,-348.82161 c -114.76996,0 -661.8285,-41.74303 -1023.896499967223007,0 C -24.041631,317.01305 -43.294918,474.81476 -44.415415,562.74639 -45.69259,662.97343 505.32799,603.95523 505.32799,603.95523 Z"
         fill="#94d75b"
         id="path10"
         sodipodi:nodetypes="ccccsc"
         style="stroke-width:1.00494" />
      <path
         d="M 710.09747,333.40685 C 413.71593,249.81783 410.7169,180.99228 -9.4525226,212.35588 364.11,212.83059 804.80858,462.53361 922.11915,462.53361 l 46.83994,16.47189 19.96623,-46.17286 c 0,0 17.55368,-15.83677 -278.82785,-99.42579 z"
         fill="#b0eb81"
         id="path11"
         sodipodi:nodetypes="zccccz"
         style="stroke-width:1.65729" />
      <path
         d="m 1043.6095,655.85141 c -80.31194,177.704 -315.55049,239.20661 -523.23449,239.20661 -221.90914,0 -447.614563,35.6025 -518.664473,-161.83305 -15.670867,-52.67399 -2.661872,-397.00081 1.189968,-313.95165 189.496065,0.86903 339.600345,22.18002 535.939155,81.02573 131.70816,39.47493 280.05675,-81.02573 488.06084,-81.02573 z"
         fill="#71be63"
         id="path13"
         sodipodi:nodetypes="csscscc"
         style="fill:#63be66;fill-opacity:1" />
      <path
         d="m 591.22974,191.5675 a 8.2115236,6.8855945 0 0 1 -8.21582,-6.88319 v -74.14055 c 0,-3.80131 3.67535,-6.88319 8.21582,-6.88319 4.54047,0 8.21439,3.08188 8.21439,6.88319 v 74.14055 a 8.2100912,6.8843934 0 0 1 -8.21439,6.88319 z"
         fill="#674447"
         id="path14"
         style="stroke-width:0.655799" />
      <path
         d="m 642.96678,104.22867 c 0,23.96086 -23.165,43.38537 -51.7399,43.38537 -28.5749,0 -51.73991,-19.42451 -51.73991,-43.38537 0,-23.960857 23.16501,-97.618592 51.73991,-97.618592 28.5749,0 51.7399,73.656525 51.7399,97.618592 z"
         fill="#43ab5f"
         id="path15"
         style="stroke-width:0.655799" />
      <path
         d="m 591.22688,6.610078 c -7.17309,0 -14.00385,4.64925 -20.21442,11.98163 h 10e-4 c 26.15426,0 47.35555,67.414695 47.35555,89.345782 0,19.07621 -16.05494,34.98166 -37.44529,38.80699 3.33015,0.56449 6.77347,0.87076 10.30128,0.87076 28.5749,0 51.74134,-19.42451 51.74134,-43.38537 0.001,-23.963267 -23.165,-97.619792 -51.7399,-97.619792 z"
         fill="#71be63"
         id="path16"
         style="stroke-width:0.655799" />
      <path
         d="M 1024.2684,617.20137 C 923.34626,617.77948 940.88359,573.63457 746.63429,579.33307 598.33634,583.68355 570.44012,696.86168 348.20974,646.6781 269.94188,629.00384 157.48199,613.20793 0.2684271,617.20137 -24.553646,736.20435 -70.766243,926.72455 7.4282575,953.56298 120.98141,992.5373 434.3384,938.51896 515.09685,938.51896 c 114.97266,0 489.49945,121.82844 511.99995,0 25.7998,-139.69231 45.1909,-229.01844 -2.8284,-321.31759 z"
         fill="#43ab5f"
         id="path17"
         sodipodi:nodetypes="csscsssc"
         style="fill:#43ab64;fill-opacity:1;stroke-width:1.08055" />
      <path
         d="m 348.65559,751.74209 m -13.334,0 a 13.334,13.334 0 1 0 26.668,0 13.334,13.334 0 1 0 -26.668,0 z"
         fill="#b0eb81"
         id="path18" />
      <path
         d="m 378.38068,443.61923 m -13.334,0 a 13.334,13.334 0 1 0 26.668,0 13.334,13.334 0 1 0 -26.668,0 z"
         fill="#94d75b"
         id="path19" />
      <path
         d="m 538.36035,606.52416 m -13.334,0 a 13.334,13.334 0 1 0 26.668,0 13.334,13.334 0 1 0 -26.668,0 z"
         fill="#94d75b"
         id="path20"
         inkscape:transform-center-x="7.0710678"
         inkscape:transform-center-y="-63.639611" />
      <path
         d="m 574.55943,723.57661 m -13.334,0 a 13.334,13.334 0 1 0 26.668,0 13.334,13.334 0 1 0 -26.668,0 z"
         fill="#71be63"
         id="path21" />
      <path
         d="m 739.74953,659.29539 m -13.334,0 a 13.334,13.334 0 1 0 26.668,0 13.334,13.334 0 1 0 -26.668,0 z"
         fill="#b0eb81"
         id="path22" />
      <path
         d="m 513.41421,616.03399 m -13.334,0 a 13.334,13.334 0 1 0 26.668,0 13.334,13.334 0 1 0 -26.668,0 z"
         fill="#71be63"
         id="path23" />
      <path
         d="m 166.37763,724.06189 m -13.334,0 a 13.334,13.334 0 1 0 26.668,0 13.334,13.334 0 1 0 -26.668,0 z"
         fill="#71be63"
         id="path24" />
      <path
         d="m 388.28056,617.84769 m -13.334,0 a 13.334,13.334 0 1 0 26.668,0 13.334,13.334 0 1 0 -26.668,0 z"
         fill="#b0eb81"
         id="path18-4"
         style="opacity:0.85" />
      <path
         d="m 494.37318,527.80204 m -13.334,0 a 13.334,13.334 0 1 0 26.668,0 13.334,13.334 0 1 0 -26.668,0 z"
         fill="#94d75b"
         id="path19-4"
         style="opacity:0.85" />
      <path
         d="m 123.97821,604.30963 m -13.334,0 a 13.334,13.334 0 1 0 26.668,0 13.334,13.334 0 1 0 -26.668,0 z"
         fill="#71be63"
         id="path24-1"
         style="opacity:0.85" />
      <path
         d="m 260.3218,590.27669 m -13.334,0 a 13.334,13.334 0 1 0 26.668,0 13.334,13.334 0 1 0 -26.668,0 z"
         fill="#b0eb81"
         id="path25" />
      <path
         d="m 284.91769,508.30454 m -13.334,0 a 13.334,13.334 0 1 0 26.668,0 13.334,13.334 0 1 0 -26.668,0 z"
         fill="#b0eb81"
         id="path26" />
      <path
         d="m 92.965045,529.86857 m -13.334,0 a 13.334002,13.334002 0 1 0 26.668005,0 13.334002,13.334002 0 1 0 -26.668005,0 z"
         fill="#94d75b"
         id="path27" />
      <path
         d="m 758.32821,539.16399 m -13.334,0 a 13.334,13.334 0 1 0 26.668,0 13.334,13.334 0 1 0 -26.668,0 z"
         fill="#b0eb81"
         id="path28" />
      <path
         d="m 887.41821,501.60199 m -13.334,0 a 13.334,13.334 0 1 0 26.668,0 13.334,13.334 0 1 0 -26.668,0 z"
         fill="#b0eb81"
         id="path29" />
      <path
         d="m 921.92871,711.09197 m -13.334,0 a 13.334,13.334 0 1 0 26.668,0 13.334,13.334 0 1 0 -26.668,0 z"
         fill="#71be63"
         id="path30" />
      <path
         d="m 853.08052,674.83504 m -13.334,0 a 13.334,13.334 0 1 0 26.668,0 13.334,13.334 0 1 0 -26.668,0 z"
         fill="#71be63"
         id="path31" />
      <path
         d="m 50.629233,680.03045 m -13.334,0 a 13.334,13.334 0 1 0 26.668,0 13.334,13.334 0 1 0 -26.668,0 z"
         fill="#71be63"
         id="path32" />
      <path
         d="m 132.22817,483.79852 m -13.334,0 a 13.334,13.334 0 1 0 26.668,0 13.334,13.334 0 1 0 -26.668,0 z"
         fill="#71be63"
         id="path33" />
    </g>
  </g>
</svg>
