<?xml version="1.0" encoding="UTF-8" standalone="no"?>
<!-- Uploaded to: SVG Repo, www.svgrepo.com, Generator: SVG Repo Mixer Tools -->

<svg
   height="500"
   width="800"
   version="1.1"
   id="Capa_1"
   viewBox="0 0 512 320"
   xml:space="preserve"
   sodipodi:docname="mountains.svg"
   inkscape:version="1.4 (e7c3feb1, 2024-10-09)"
   xmlns:inkscape="http://www.inkscape.org/namespaces/inkscape"
   xmlns:sodipodi="http://sodipodi.sourceforge.net/DTD/sodipodi-0.dtd"
   xmlns="http://www.w3.org/2000/svg"
   xmlns:svg="http://www.w3.org/2000/svg"><defs
   id="defs79"><inkscape:path-effect
     effect="tiling"
     id="path-effect14"
     is_visible="true"
     lpeversion="1.3.1"
     unit="px"
     seed="1;1"
     lpesatellites=""
     num_rows="3"
     num_cols="3"
     gapx="0"
     gapy="0"
     offset="0"
     offset_type="false"
     scale="0"
     rotate="0"
     mirrorrowsx="false"
     mirrorrowsy="false"
     mirrorcolsx="false"
     mirrorcolsy="false"
     mirrortrans="false"
     shrink_interp="false"
     split_items="false"
     link_styles="false"
     interpolate_scalex="false"
     interpolate_scaley="true"
     interpolate_rotatex="false"
     interpolate_rotatey="true"
     random_scale="false"
     random_rotate="false"
     random_gap_y="false"
     random_gap_x="false"
     transformorigin="matrix(1.1430011,0,0,1.2416288,-4.3600315,-124.2224)" /><inkscape:path-effect
     effect="tiling"
     id="path-effect13"
     is_visible="true"
     lpeversion="1.3.1"
     unit="px"
     seed="1;1"
     lpesatellites=""
     num_rows="3"
     num_cols="3"
     gapx="0"
     gapy="0"
     offset="0"
     offset_type="false"
     scale="0"
     rotate="0"
     mirrorrowsx="false"
     mirrorrowsy="false"
     mirrorcolsx="false"
     mirrorcolsy="false"
     mirrortrans="false"
     shrink_interp="false"
     split_items="false"
     link_styles="false"
     interpolate_scalex="false"
     interpolate_scaley="true"
     interpolate_rotatex="false"
     interpolate_rotatey="true"
     random_scale="false"
     random_rotate="false"
     random_gap_y="false"
     random_gap_x="false"
     transformorigin="matrix(1,0,0,1.0375123,-5.2217116,-65.991631)" /><inkscape:path-effect
     center_point="255.12971,200.90341"
     end_point="255.12971,360.90341"
     start_point="255.12971,40.903408"
     effect="mirror_symmetry"
     id="path-effect6"
     is_visible="true"
     lpeversion="1.2"
     lpesatellites=""
     mode="vertical"
     discard_orig_path="false"
     fuse_paths="false"
     oposite_fuse="false"
     split_items="false"
     split_open="false"
     link_styles="false" /><clipPath
     clipPathUnits="userSpaceOnUse"
     id="clipPath3"><rect
       style="fill:#d50ac8;stroke-width:0.636772"
       id="rect3"
       width="512"
       height="320"
       x="-0.87028533"
       y="40.903408" /></clipPath></defs><sodipodi:namedview
   id="namedview79"
   pagecolor="#ffffff"
   bordercolor="#000000"
   borderopacity="0.25"
   inkscape:showpageshadow="2"
   inkscape:pageopacity="0.0"
   inkscape:pagecheckerboard="0"
   inkscape:deskcolor="#d1d1d1"
   inkscape:zoom="2.08"
   inkscape:cx="403.125"
   inkscape:cy="243.75"
   inkscape:window-width="2480"
   inkscape:window-height="1387"
   inkscape:window-x="1592"
   inkscape:window-y="25"
   inkscape:window-maximized="0"
   inkscape:current-layer="Capa_1" />
<g
   id="g79"
   style="opacity:0.851">
	
	
	
	
	
	
	
	
	
	
	
	
	
	
	
	
	
	
	
	
	
	
	
	
	
	
	<g
   id="g1"
   transform="translate(0.87028532,-40.903408)"
   style="opacity:0.85031847"><g
     id="g2"
     clip-path="url(#clipPath3)"><g
       id="g6"
       inkscape:path-effect="#path-effect6"><g
         id="g3"
         transform="matrix(1,0,0,1.0375123,-1.8556165e-6,-68.602487)">
		<path
   style="fill:#7e7e92"
   d="m 444.04357,210.36592 c 27.467,0 38.8,36.267 75.467,36.267 l -3.69231,86.77254 c 0,0 -102.30769,5.50746 -110.30769,7.56746 -4.53,1.167 -27.00999,6.52885 -35.09499,3.41085 -7.19,-23.621 1.09499,-57.37885 1.09499,-83.35085 0,-1.826 0.1,-3.626 0.138,-5.443 1.485,-1.185 56.742,-45.224 72.395,-45.224 z m -377.827707,0 c -27.467,0 -38.8,36.267 -75.4669999,36.267 l 3.69231,86.77254 c 0,0 102.3076899,5.50746 110.3076869,7.56746 4.53,1.167 27.00999,6.52885 35.09499,3.41085 7.19,-23.621 -1.09499,-57.37885 -1.09499,-83.35085 0,-1.826 -0.1,-3.626 -0.138,-5.443 -1.485,-1.185 -56.741997,-45.224 -72.394997,-45.224 z"
   id="path2"
   sodipodi:nodetypes="sccccscs"
   inkscape:original-d="m 444.04357,210.36592 c 27.467,0 38.8,36.267 75.467,36.267 l -3.69231,86.77254 c 0,0 -102.30769,5.50746 -110.30769,7.56746 -4.53,1.167 -27.00999,6.52885 -35.09499,3.41085 -7.19,-23.621 1.09499,-57.37885 1.09499,-83.35085 0,-1.826 0.1,-3.626 0.138,-5.443 1.485,-1.185 56.742,-45.224 72.395,-45.224 z" />
	</g><g
         id="g51"
         transform="matrix(1,0,0,1.0375123,-1.8556165e-6,-68.602487)">
		<path
   style="fill:#c3e1f5"
   d="m 402.84557,232.31892 c 15.876,-11.083 33.422,-21.953 41.198,-21.953 17.39,0 28.327,14.523 43.307,25.19 l -0.011,0.007 c -24.829,-4.197 -26.642,27.805 -38.142,27.805 -13.457,0 -13.824,-17.163 -27.02,-11.335 -25.667,11.335 -6.334,-15.166 -19.332,-19.714 z m -295.43171,0 c -15.875997,-11.083 -33.421997,-21.953 -41.197997,-21.953 -17.39,0 -28.327,14.523 -43.307,25.19 l 0.011,0.007 c 24.829,-4.197 26.642,27.805 38.142,27.805 13.457,0 13.824,-17.163 27.02,-11.335 25.666997,11.335 6.334,-15.166 19.331997,-19.714 z"
   id="path50"
   inkscape:original-d="m 402.84557,232.31892 c 15.876,-11.083 33.422,-21.953 41.198,-21.953 17.39,0 28.327,14.523 43.307,25.19 l -0.011,0.007 c -24.829,-4.197 -26.642,27.805 -38.142,27.805 -13.457,0 -13.824,-17.163 -27.02,-11.335 -25.667,11.335 -6.334,-15.166 -19.332,-19.714 z" />
	</g><g
         id="g52"
         transform="matrix(1,0,0,1.0375123,-1.8556165e-6,-68.602487)">
		<path
   style="fill:#edf5fb"
   d="m 418.44757,221.98192 c 10.631,-6.625 20.349,-11.616 25.597,-11.616 11.887,0 20.767,6.808 29.976,14.509 -13.101,5.712 -23.494,22.357 -39.582,11.657 -10.662,-7.091 -12.597,-11.414 -15.991,-14.55 z m -326.635707,0 c -10.631,-6.625 -20.349,-11.616 -25.597,-11.616 -11.887,0 -20.767,6.808 -29.976,14.509 13.101,5.712 23.494,22.357 39.582,11.657 10.662,-7.091 12.597,-11.414 15.991,-14.55 z"
   id="path51"
   inkscape:original-d="m 418.44757,221.98192 c 10.631,-6.625 20.349,-11.616 25.597,-11.616 11.887,0 20.767,6.808 29.976,14.509 -13.101,5.712 -23.494,22.357 -39.582,11.657 -10.662,-7.091 -12.597,-11.414 -15.991,-14.55 z" />
	</g></g><g
       id="g4"
       transform="matrix(1,0,0,1.0375123,0,-68.602487)">
		<path
   style="fill:#6e6e84"
   d="m 338.667,460 179.59126,-62.24815 c 15.673,-25.713 20.97907,-78.69047 20.97907,-78.69047 l -23.57766,-0.82615 c 0,0 -62.15967,-17.77688 -83.65867,-27.27688 -26.436,-11.681 -86.354,-89.30235 -123.83,-138.92635 -6.968,-8.764 -13.73,-16.901 -20.17,-24.032 -11.113,-12.306 -43.567,-16 -48,-16 -3.841,0 -34.938,36.584 -57.636,64.003 -34.218,41.784 -66.19731,83.83311 -99.288077,104.87938 l -66.198077,43.38491 z"
   id="path3"
   sodipodi:nodetypes="ccsccccscccc" />
	</g><g
       id="g5"
       transform="matrix(1,0,0,1.0375123,-6.4524809,-49.068554)"
       inkscape:path-effect="#path-effect13">
		<path
   style="fill:#5f5f74"
   d="m 539.42836,340.93649 c -5.91859,-6.24223 14.50835,-44.20256 -23.07693,-44.4851 C 478.76615,296.16885 380.51084,272.59813 350.46154,247.14967 332.46155,231.90566 320.202,256.098 305,274.5 295.5,286 277.902,324 256,308 234.098,292 224.873,242.55 204,242 187,241.552 173,266.342 160.478,252.667 152.234,243.664 54.50025,295.11091 5.5821956,296.45139 -43.33586,297.79186 -8.6319796,390.8168 2.3680206,390.1608 13.368021,389.5048 240.902,373.912 240.902,373.912 c 0,0 23.023,27.117 34.847,22.755 11.824,-4.362 40.716,4.735 57.279,-2.606 16.563,-7.34 95.561,-40.061 97.266,-44.061 1.705,-4 109.13436,-9.06351 109.13436,-9.06351 z m 559.64824,0 c -5.9186,-6.24223 14.5084,-44.20256 -23.0769,-44.4851 -37.5853,-0.28254 -135.84062,-23.85326 -165.88992,-49.30172 -17.99999,-15.24401 -30.25954,8.94833 -45.46154,27.35033 -9.5,11.5 -27.098,49.5 -49,33.5 -21.902,-16 -31.127,-65.45 -52,-66 -17,-0.448 -31,24.342 -43.522,10.667 -8.244,-9.003 -105.97775,42.44391 -154.8958,43.78439 -48.91806,1.34047 -14.21417,94.36541 -3.21417,93.70941 11,-0.656 238.53397,-16.2488 238.53397,-16.2488 0,0 23.023,27.117 34.847,22.755 11.824,-4.362 40.716,4.735 57.279,-2.606 16.563,-7.34 95.561,-40.061 97.266,-44.061 1.705,-4 109.13436,-9.06351 109.13436,-9.06351 z m 559.6482,0 c -5.9185,-6.24223 14.5084,-44.20256 -23.0769,-44.4851 -37.5853,-0.28254 -135.8406,-23.85326 -165.8899,-49.30172 -18,-15.24401 -30.2595,8.94833 -45.4615,27.35033 -9.5,11.5 -27.098,49.5 -49,33.5 -21.902,-16 -31.127,-65.45 -52,-66 -17,-0.448 -31,24.342 -43.522,10.667 -8.244,-9.003 -105.9778,42.44391 -154.8958,43.78439 -48.9181,1.34047 -14.2142,94.36541 -3.2142,93.70941 11,-0.656 238.534,-16.2488 238.534,-16.2488 0,0 23.023,27.117 34.847,22.755 11.824,-4.362 40.716,4.735 57.279,-2.606 16.563,-7.34 95.561,-40.061 97.266,-44.061 1.705,-4 109.1343,-9.06351 109.1343,-9.06351 z m -1119.29644,155.148 c -5.91859,-6.24223 14.50835,-44.20256 -23.07693,-44.4851 C 478.76615,451.31685 380.51084,427.74613 350.46154,402.29767 332.46155,387.05366 320.202,411.246 305,429.648 c -9.5,11.5 -27.098,49.5 -49,33.5 -21.902,-16 -31.127,-65.45 -52,-66 C 187,396.7 173,421.49 160.478,407.815 152.234,398.812 54.50025,450.25891 5.5821956,451.59939 -43.33586,452.93986 -8.6319796,545.9648 2.3680206,545.3088 13.368021,544.6528 240.902,529.06 240.902,529.06 c 0,0 23.023,27.117 34.847,22.755 11.824,-4.362 40.716,4.735 57.279,-2.606 16.563,-7.34 95.561,-40.061 97.266,-44.061 1.705,-4 109.13436,-9.06351 109.13436,-9.06351 z m 559.64824,0 c -5.9186,-6.24223 14.5084,-44.20256 -23.0769,-44.4851 -37.5853,-0.28254 -135.84062,-23.85326 -165.88992,-49.30172 -17.99999,-15.24401 -30.25954,8.94833 -45.46154,27.35033 -9.5,11.5 -27.098,49.5 -49,33.5 -21.902,-16 -31.127,-65.45 -52,-66 -17,-0.448 -31,24.342 -43.522,10.667 -8.244,-9.003 -105.97775,42.44391 -154.8958,43.78439 -48.91806,1.34047 -14.21417,94.36541 -3.21417,93.70941 11,-0.656 238.53397,-16.2488 238.53397,-16.2488 0,0 23.023,27.117 34.847,22.755 11.824,-4.362 40.716,4.735 57.279,-2.606 16.563,-7.34 95.561,-40.061 97.266,-44.061 1.705,-4 109.13436,-9.06351 109.13436,-9.06351 z m 559.6482,0 c -5.9185,-6.24223 14.5084,-44.20256 -23.0769,-44.4851 -37.5853,-0.28254 -135.8406,-23.85326 -165.8899,-49.30172 -18,-15.24401 -30.2595,8.94833 -45.4615,27.35033 -9.5,11.5 -27.098,49.5 -49,33.5 -21.902,-16 -31.127,-65.45 -52,-66 -17,-0.448 -31,24.342 -43.522,10.667 -8.244,-9.003 -105.9778,42.44391 -154.8958,43.78439 -48.9181,1.34047 -14.2142,94.36541 -3.2142,93.70941 11,-0.656 238.534,-16.2488 238.534,-16.2488 0,0 23.023,27.117 34.847,22.755 11.824,-4.362 40.716,4.735 57.279,-2.606 16.563,-7.34 95.561,-40.061 97.266,-44.061 1.705,-4 109.1343,-9.06351 109.1343,-9.06351 z M 539.42836,651.23248 c -5.91859,-6.24223 14.50835,-44.20256 -23.07693,-44.4851 C 478.76615,606.46484 380.51084,582.89412 350.46154,557.44566 332.46155,542.20165 320.202,566.39399 305,584.79599 c -9.5,11.5 -27.098,49.5 -49,33.5 -21.902,-16 -31.127,-65.45 -52,-66 -17,-0.448 -31,24.342 -43.522,10.667 -8.244,-9.003 -105.97775,42.44391 -154.8958044,43.78439 -48.9180556,1.34047 -14.2141752,94.36541 -3.214175,93.70941 11.0000004,-0.656 238.5339794,-16.2488 238.5339794,-16.2488 0,0 23.023,27.117 34.847,22.755 11.824,-4.362 40.716,4.735 57.279,-2.606 16.563,-7.34 95.561,-40.061 97.266,-44.061 1.705,-4 109.13436,-9.06351 109.13436,-9.06351 z m 559.64824,0 c -5.9186,-6.24223 14.5084,-44.20256 -23.0769,-44.4851 -37.5853,-0.28254 -135.84062,-23.85326 -165.88992,-49.30172 -17.99999,-15.24401 -30.25954,8.94833 -45.46154,27.35033 -9.5,11.5 -27.098,49.5 -49,33.5 -21.902,-16 -31.127,-65.45 -52,-66 -17,-0.448 -31,24.342 -43.522,10.667 -8.244,-9.003 -105.97775,42.44391 -154.8958,43.78439 -48.91806,1.34047 -14.21417,94.36541 -3.21417,93.70941 11,-0.656 238.53397,-16.2488 238.53397,-16.2488 0,0 23.023,27.117 34.847,22.755 11.824,-4.362 40.716,4.735 57.279,-2.606 16.563,-7.34 95.561,-40.061 97.266,-44.061 1.705,-4 109.13436,-9.06351 109.13436,-9.06351 z m 559.6482,0 c -5.9185,-6.24223 14.5084,-44.20256 -23.0769,-44.4851 -37.5853,-0.28254 -135.8406,-23.85326 -165.8899,-49.30172 -18,-15.24401 -30.2595,8.94833 -45.4615,27.35033 -9.5,11.5 -27.098,49.5 -49,33.5 -21.902,-16 -31.127,-65.45 -52,-66 -17,-0.448 -31,24.342 -43.522,10.667 -8.244,-9.003 -105.9778,42.44391 -154.8958,43.78439 -48.9181,1.34047 -14.2142,94.36541 -3.2142,93.70941 11,-0.656 238.534,-16.2488 238.534,-16.2488 0,0 23.023,27.117 34.847,22.755 11.824,-4.362 40.716,4.735 57.279,-2.606 16.563,-7.34 95.561,-40.061 97.266,-44.061 1.705,-4 109.1343,-9.06351 109.1343,-9.06351 z"
   id="path4"
   sodipodi:nodetypes="czscssczscscsc"
   inkscape:original-d="m 539.42836,340.93649 c -5.91859,-6.24223 14.50835,-44.20256 -23.07693,-44.4851 C 478.76615,296.16885 380.51084,272.59813 350.46154,247.14967 332.46155,231.90566 320.202,256.098 305,274.5 295.5,286 277.902,324 256,308 234.098,292 224.873,242.55 204,242 187,241.552 173,266.342 160.478,252.667 152.234,243.664 54.50025,295.11091 5.5821956,296.45139 -43.33586,297.79186 -8.6319796,390.8168 2.3680206,390.1608 13.368021,389.5048 240.902,373.912 240.902,373.912 c 0,0 23.023,27.117 34.847,22.755 11.824,-4.362 40.716,4.735 57.279,-2.606 16.563,-7.34 95.561,-40.061 97.266,-44.061 1.705,-4 109.13436,-9.06351 109.13436,-9.06351 z" />
	</g><g
       id="g8"
       transform="matrix(1.1430011,0,0,1.1182718,-4.3600315,-70.50252)">
		<path
   style="fill:#52c883"
   d="M 3.0531433,300.51317 C -41.318261,281.74972 -122.6944,428.21844 -19.4774,435.48294 l 429.42948,-39.11203 c 0,0 70.9517,-82.74469 41.04464,-95.85774 -29.95508,-13.13411 -58.11404,-6.92636 -113.09284,7.45976 -51.84943,13.56726 -136.64172,23.94218 -154.43821,25.19143 C 144.89629,335.87179 47.424548,319.27662 3.0531433,300.51317 Z"
   id="path7"
   sodipodi:nodetypes="zzcsssz" />
	</g><g
       id="g9"
       transform="matrix(1.0777202,0,0,0.95471046,-50.837723,-26.200483)">
		<path
   style="fill:#34be71"
   d="m 429.18677,632.09937 c 124.97,0 1042.93103,-265.08057 102.53228,-296.98968 -0.6233,-0.0212 32.1888,-0.9739 -12.11307,-0.0302 C 366.36168,338.34382 296.56582,422.42322 192,408 156.10619,403.04913 113.09755,334.71747 46.364017,335.07949 c -66.733529,0.36202 -58.911453,-36.14491 -77.825184,-9.44974 -49.623955,70.04013 372.489937,306.46962 460.647937,306.46962 z"
   id="path8"
   sodipodi:nodetypes="sssczss" />
	</g><g
       id="g40"
       transform="translate(-43.514263,-2.6108558)">
		<path
   style="fill:#44a67d"
   d="M 485.73,368.878 C 345.74057,365.4977 219.12891,503.59183 -3.0500946,503.61883 -3.8519287,567.82967 617.90668,597.99901 616.2981,535.4977 614.46144,464.13431 699.88487,368.35604 485.73,368.878 Z"
   id="path39"
   sodipodi:nodetypes="ccsc" />
	</g><g
       id="g42"
       transform="matrix(1,0,0,1.0375123,0.92307693,-70.035365)">
		<path
   style="fill:#c3e1f5"
   d="M 308.17,152.032 C 301.202,143.268 294.44,135.131 288,128 c -11.113,-12.306 -43.567,-16 -48,-16 -3.841,0 -34.938,36.584 -57.636,64.003 -8.701,10.625 -17.794,21.803 -26.844,32.895 3.913,5.46 11.484,13.15 22.694,12.057 22.061,-2.152 26.365,-27.979 43.045,-25.828 22.722,2.932 19.273,68.873 43.046,68.873 23.137,0 7.092,-50.01 34.436,-60.264 20.142,-7.553 27.568,14.102 61.51,16.915 -18.565,-23.734 -37.113,-48.799 -52.081,-68.619 z"
   id="path41" />
	</g><g
       id="g43"
       transform="matrix(1,0,0,1.0375123,0,-71.213343)">
		<path
   style="fill:#edf5fb"
   d="m 317.75,164.765 c -3.311,-4.41 -6.535,-8.702 -9.579,-12.733 -6.968,-8.764 -13.73,-16.901 -20.17,-24.032 -11.113,-12.306 -43.567,-16 -48,-16 -2.677,0 -18.595,17.775 -35.68,37.827 18.68,-14.827 28.872,-8.726 32.346,8.618 8.023,40.055 16.667,72.221 26.667,46.888 10,-25.333 5.605,-39.841 34.938,-36.833 11.578,1.187 13.963,-2.203 19.478,-3.735 z"
   id="path42" />
	</g></g></g>
	
	
	
	
	
	
</g>
</svg>
