<?xml version="1.0" encoding="UTF-8" standalone="no"?>
<!-- Uploaded to: SVG Repo, www.svgrepo.com, Generator: SVG Repo Mixer Tools -->

<svg
   width="800"
   height="600"
   viewBox="0 0 1024 768"
   class="icon"
   version="1.1"
   id="svg33"
   sodipodi:docname="sea.svg"
   inkscape:version="1.4 (e7c3feb1, 2024-10-09)"
   xmlns:inkscape="http://www.inkscape.org/namespaces/inkscape"
   xmlns:sodipodi="http://sodipodi.sourceforge.net/DTD/sodipodi-0.dtd"
   xmlns="http://www.w3.org/2000/svg"
   xmlns:svg="http://www.w3.org/2000/svg">
  <defs
     id="defs33" />
  <sodipodi:namedview
     id="namedview33"
     pagecolor="#ffffff"
     bordercolor="#000000"
     borderopacity="0.25"
     inkscape:showpageshadow="2"
     inkscape:pageopacity="0.0"
     inkscape:pagecheckerboard="0"
     inkscape:deskcolor="#d1d1d1"
     inkscape:zoom="0.74953319"
     inkscape:cx="414.92492"
     inkscape:cy="520.32386"
     inkscape:window-width="1280"
     inkscape:window-height="1387"
     inkscape:window-x="2792"
     inkscape:window-y="25"
     inkscape:window-maximized="0"
     inkscape:current-layer="g34" />
  <g
     id="g34"
     style="opacity:0.7">
    <rect
       style="fill:#b3f4ef;fill-opacity:1;stroke-width:1.28"
       id="rect33"
       width="1282.5049"
       height="124.66425"
       x="-83.678749"
       y="-11.954108" />
    <path
       d="M 1038.6091,55.966048 C 1042.7801,39.760784 1129.1356,1.229648 1024,3.84 957.70561,5.485986 764.04003,34.414494 703.38389,35.503891 630.32113,36.816113 536.02878,8.511065 464.283,6.567603 392.53721,4.624142 325.81188,13.87277 274.91251,19.136057 224.01314,24.399344 207.92824,36.315276 158.81886,35.473293 109.70947,34.63131 87.776194,1.131527 0,3.84 -87.776194,6.548473 -15.265713,374.33804 -15.265713,374.33804 152.78768,375.36026 917.5949,388.87259 1084.8643,417.41821 1106.2558,276.65271 1014.0461,151.39905 1038.6091,55.966048 Z"
       fill="#57b9e7"
       id="path7"
       sodipodi:nodetypes="ssszzzzccs"
       style="fill:#8be5ee;fill-opacity:1" />
    <path
       d="M 1.7077296,46.08 C 104.32438,45.304719 177.30753,93.964048 296.38256,96.10263 369.44532,97.41485 456.71369,49.085096 545.72983,43.258131 634.74597,37.431166 760.76545,75.753564 858.02489,77.287011 955.28433,78.820458 960.13199,43.371528 1024,46.08 c 63.868,2.708472 8.1094,370.07176 8.1094,370.07176 C 864.05607,417.17398 99.248851,430.68631 -68.020518,459.23193 -89.412018,318.46643 -96.832851,46.824486 1.7077296,46.08 Z"
       fill="#57b9e7"
       id="path7-7"
       sodipodi:nodetypes="sszzzccs" />
    <path
       d="m 0,130.82729 c 137.48512,-2.59616 153.77917,6.5423 240.73306,11.52713 152.39631,8.73649 327.43306,-53.533972 474.75809,-57.60545 131.31569,-3.629044 214.78927,39.54064 308.50885,46.07832 118.316,8.25347 19.0614,418.34407 19.0614,418.34407 C 875.00805,550.50984 110.20081,568.2026 -57.068559,605.57964 -78.460059,421.2642 -126.68532,133.21952 0,130.82729 Z"
       fill="#57b9e7"
       id="path7-7-2"
       sodipodi:nodetypes="ssssccs"
       style="fill:#1e6ad5;fill-opacity:1;stroke-width:1.14429" />
    <path
       style="fill:#00ab91;fill-opacity:1;stroke:none;stroke-width:8.25977;stroke-linecap:round;stroke-linejoin:round;stroke-dasharray:none;stroke-opacity:1;paint-order:markers fill stroke"
       d="m 606.56723,500.91331 c -2.6138,-17.30694 25.22535,-7.15847 22.47872,-24.4517 -2.59176,-16.31819 -27.23457,-13.24209 -28.86644,-29.62706 -1.72345,-17.30445 38.27174,-8.69374 37.71204,-25.98432 -0.55348,-17.09872 -38.41427,-12.7858 -39.09291,-29.8908 -0.57273,-14.43596 32.94132,-7.88088 31.10717,-22.30368 -2.3042,-18.11894 -40.68747,-4.63307 -45.48501,-22.35366 -3.74249,-13.82357 12.84226,-23.47949 22.05315,-32.1647 8.98012,-8.46759 23.47169,-29.7446 31.31995,-18.44719 9.30487,13.39419 -31.00165,17.59111 -28.76441,33.91712 2.02331,14.76488 29.18153,11.64684 33.76689,25.90241 4.29037,13.33847 -13.76098,24.43317 -11.50751,38.21321 2.32281,14.20413 25.53919,21.29352 24.07237,35.27988 -1.19097,11.35594 -23.61887,7.2024 -24.5023,18.62304 -1.39296,18.00751 34.50663,25.22355 33.01998,43.21265 -1.24755,15.09595 -19.22216,23.67325 -32.70519,24.18797 -8.84737,0.33775 -23.09226,-4.08684 -24.6065,-14.11317 z"
       id="path34"
       sodipodi:nodetypes="csssssssssssssscc" />
    <path
       style="fill:#00ab72;fill-opacity:1;stroke:none;stroke-width:8.82556;stroke-linecap:round;stroke-linejoin:round;stroke-dasharray:none;stroke-opacity:1;paint-order:markers fill stroke"
       d="m 659.93196,507.66368 c -3.04244,-18.88939 26.16567,-8.39514 22.98501,-27.26659 -3.00132,-17.80742 -28.63461,-13.89445 -30.6365,-31.79622 -2.1142,-18.90637 39.73817,-10.36461 38.83739,-29.28154 -0.89076,-18.70703 -40.2809,-13.14754 -41.30227,-31.85868 -0.86197,-15.79148 34.1962,-9.35675 32.01946,-25.1059 -2.73459,-19.7852 -42.50108,-4.17182 -47.82762,-23.46573 -4.15516,-15.05091 12.95699,-25.98898 22.39982,-35.70116 9.20625,-9.46885 23.92303,-33.0831 32.31204,-20.88863 9.94597,14.45773 -31.99593,19.94436 -29.36405,37.76819 2.38022,16.11947 30.63503,12.10493 35.67679,27.61013 4.71741,14.5077 -13.89725,27.05337 -11.29516,42.08957 2.68215,15.49894 27.01495,22.74648 25.74248,38.09089 -1.03318,12.45856 -24.49013,8.40767 -25.20152,20.93026 -1.12169,19.74504 36.4355,26.85056 35.21579,46.57751 -1.02352,16.55429 -19.60438,26.34229 -33.65078,27.20415 -9.21705,0.56554 -24.14832,-3.96318 -25.91088,-14.90625 z"
       id="path34-4"
       sodipodi:nodetypes="csssssssssssssscc" />
    <path
       style="fill:#00ab91;fill-opacity:1;stroke:none;stroke-width:6.45289;stroke-linecap:round;stroke-linejoin:round;stroke-dasharray:none;stroke-opacity:1;paint-order:markers fill stroke"
       d="m 709.12502,544.31092 c -2.82218,-14.42559 17.79328,-7.51193 14.87613,-21.91816 -2.75267,-13.59401 -20.34742,-9.55521 -22.41187,-23.26183 -2.18028,-14.4758 27.11337,-9.57157 25.77262,-24.10405 -1.32589,-14.37121 -28.38054,-8.51413 -29.79697,-22.88328 -1.19541,-12.12702 23.31548,-8.57372 21.21162,-20.61555 -2.64303,-15.1278 -29.577,-1.51286 -33.99553,-16.15863 -3.44684,-11.42496 7.98329,-20.53316 14.15128,-28.39052 6.01346,-7.66046 15.3049,-26.43516 21.57406,-17.37939 7.43267,10.73653 -21.39106,16.63955 -18.89348,30.26095 2.25875,12.31889 21.66422,8.09702 25.74198,19.83638 3.81543,10.98412 -8.59378,21.39048 -6.22253,32.86623 2.44422,11.82893 19.56195,16.4372 19.26294,28.30529 -0.24276,9.63604 -16.63303,7.45456 -16.65063,17.12705 -0.0278,15.2511 26.23835,19.22105 26.14206,34.46217 -0.0808,12.78989 -12.57116,21.07111 -22.26126,22.2967 -6.35851,0.80421 -16.86549,-2.08625 -18.50042,-10.44336 z"
       id="path34-7"
       sodipodi:nodetypes="csssssssssssssscc" />
    <path
       style="fill:#00ab6c;fill-opacity:1;stroke:none;stroke-width:4.29813;stroke-linecap:round;stroke-linejoin:round;stroke-dasharray:none;stroke-opacity:1;paint-order:markers fill stroke"
       d="m 762.8182,518.06646 c 0.95517,-12.82424 -9.21827,-5.30434 -8.21455,-18.11841 0.94712,-12.09158 9.95251,-9.81223 10.54885,-21.95329 0.62981,-12.82238 -13.98589,-6.44196 -13.78136,-19.25406 0.20227,-12.66993 14.03798,-9.47412 14.28598,-22.14871 0.2093,-10.69687 -12.03796,-5.83963 -11.3677,-16.52674 0.84204,-13.42592 14.86869,-3.43306 16.62189,-16.56379 1.36764,-10.24309 -4.69303,-17.39801 -8.05903,-23.83364 -3.28166,-6.27438 -8.57741,-22.04037 -11.44545,-13.66914 -3.40034,9.92493 11.32913,13.03479 10.51157,25.13216 -0.7394,10.9406 -10.664,8.63017 -12.33966,19.19337 -1.56786,9.88364 5.02876,18.10467 4.20526,28.31551 -0.84883,10.5251 -9.33295,15.77824 -8.79692,26.14195 0.43523,8.41461 8.6312,5.33689 8.95404,13.79945 0.50904,13.34334 -12.60999,18.69033 -12.06671,32.02003 0.4559,11.18592 7.02448,17.54159 11.95167,17.92299 3.23315,0.25027 8.43876,-3.0283 8.99212,-10.45768 z"
       id="path34-1"
       sodipodi:nodetypes="csssssssssssssscc" />
    <path
       style="fill:#00ab75;fill-opacity:1;stroke:none;stroke-width:7.65088;stroke-linecap:round;stroke-linejoin:round;stroke-dasharray:none;stroke-opacity:1;paint-order:markers fill stroke"
       d="m 502.07626,488.64683 c -0.41472,-17.62859 22.05608,-4.37946 21.52771,-22.00902 -0.49857,-16.63557 -21.63931,-16.28162 -21.3199,-32.87782 0.33733,-17.52754 33.23873,-4.47339 34.55792,-21.85822 1.30458,-17.19191 -31.13287,-17.06202 -29.93341,-34.27408 1.01233,-14.52632 28.65057,-4.24909 28.59567,-18.90185 -0.0689,-18.40784 -33.89861,-9.14572 -36.1156,-27.43046 -1.72944,-14.26368 13.28462,-22.10174 21.96755,-29.78355 8.46538,-7.48932 22.91532,-27.20188 28.37576,-15.01459 6.47386,14.44922 -28.01808,14.19216 -27.81987,30.79631 0.17926,15.01643 23.44974,14.8989 25.84658,29.68868 2.24266,13.83831 -14.15974,22.95549 -13.68394,37.01071 0.49045,14.48778 19.37231,24.1604 16.68326,38.0105 -2.18331,11.2453 -20.70324,4.60129 -22.6334,15.94547 -3.0434,17.88694 26.54199,29.09043 23.42133,46.94856 -2.61877,14.98603 -18.6954,21.58961 -30.14121,20.61275 -7.51059,-0.641 -19.08819,-6.65072 -19.32845,-16.86339 z"
       id="path34-18"
       sodipodi:nodetypes="csssssssssssssscc" />
    <path
       style="fill:#00ab8e;fill-opacity:1;stroke:none;stroke-width:7.73722;stroke-linecap:round;stroke-linejoin:round;stroke-dasharray:none;stroke-opacity:1;paint-order:markers fill stroke"
       d="m 813.93892,525.854 c 3.71265,-16.99225 -21.44778,-9.44197 -17.62022,-26.40839 3.61175,-16.00979 24.88766,-10.68599 27.66629,-26.85033 2.93455,-17.07147 -32.71938,-12.16763 -30.8027,-29.33206 1.89538,-16.97395 34.61745,-9.20591 36.62271,-26.17464 1.69234,-14.32097 -28.12942,-10.86921 -25.33609,-25.06132 3.50921,-17.82914 35.93034,-0.8799 41.58502,-18.08364 4.41115,-13.42038 -9.28132,-24.55621 -16.61154,-34.04896 -7.14659,-9.2549 -18.05074,-31.76948 -25.84042,-21.24104 -9.23541,12.4825 25.633,20.35946 22.33035,36.40957 -2.98685,14.51537 -26.45696,8.91901 -31.64016,22.69219 -4.84976,12.88711 10.00525,25.59006 6.89862,39.10372 -3.20221,13.92957 -24.07124,18.85814 -23.94455,32.91858 0.10288,11.41607 20.04061,9.3383 19.86945,20.79059 -0.26987,18.05742 -32.2304,21.94839 -32.4169,39.99607 -0.1565,15.1451 14.83931,25.3345 26.57666,27.08408 7.70186,1.14805 20.51266,-1.95041 22.66348,-11.79442 z"
       id="path34-5"
       sodipodi:nodetypes="csssssssssssssscc"
       inkscape:transform-center-x="-3.2120764"
       inkscape:transform-center-y="3.8832232" />
    <path
       d="M 1024,540.90035 C 922.29332,547.13958 573.65055,468.16913 374.01009,507.06912 214.18961,538.21016 184.34435,535.92435 7.3518785,540.90035 -196.99497,546.64539 -7.3518785,825.06348 -7.3518785,825.06348 160.70146,825.97235 918.1568,837.98635 1085.4262,863.36666 1106.8177,738.21008 1124.1013,534.75959 1024,540.90035 Z"
       fill="#57b9e7"
       id="path7-7-9"
       sodipodi:nodetypes="sssccs"
       style="stroke-width:0.942929" />
    <path
       d="M 1024,608 C 907.14826,614.06536 733.99709,494.75119 498.75872,539.46412 274.77879,582.0371 60.60142,593.18187 0,608 c -60.60142,14.81812 -39.151568,60.39116 -39.151568,60.39116 0,0 -44.209594,105.56747 88.959216,154.47257 36.930942,1.32152 410.189832,-10.8375 448.951072,-10.8375 124.28404,0 404.46312,-10.81524 503.75128,-23.12505 C 1094.4414,742.75339 1140.8517,601.93464 1024,608 Z"
       fill="#b3f4ef"
       id="path8"
       style="stroke-width:1.1754"
       sodipodi:nodetypes="zszccscz" />
    <path
       d="m 1024,665.6 c 0,0 -390.44004,-30.11285 -569.74393,-29.25896 C 274.95218,637.19493 0,665.6 0,665.6 L -34.468678,729.33574 1057.3814,720.79709 C 1079.7146,705.94109 1183.9778,654.62833 1024,665.6 Z"
       fill="#ffffff"
       id="path9"
       style="stroke-width:1.29302"
       sodipodi:nodetypes="czcccc" />
    <path
       d="m 1024,678.4 c 0,0 -437.22944,-33.47738 -569.78072,-23.51345 C 321.66801,664.85048 178.11677,675.86929 0,678.4 c 0,0 -42.821687,120.26216 -12.304544,180.74934 11.73991609,23.26937 20.2000371,39.3799 21.1194621,39.3799 2.1408599,0 599.2126419,-35.088 894.1370419,-15.2343 38.64455,-3.3449 86.61534,13.4868 122.78334,9.3747 C 1118.1689,873.58372 1162.7011,682.43546 1024,678.4 Z"
       fill="#fff8db"
       id="path10"
       style="stroke-width:1.91522"
       sodipodi:nodetypes="czcssccc" />
    <path
       d="m 1097.822,819.59901 c -70.0017,-32 -111.51387,-59.39681 -152.99792,-106.06281 -24.46739,-27.526 -194.52018,59.5092 -247.48047,36.3092 -70.00167,-30.666 -100.27012,-8.68773 -134.32106,-50.52173 -43.75105,-53.75 -505.371019,356.01643 -322.17875,276.73505 103.23175,-68.5807 -439.05363,187.36358 1000.7677,63.31088 118.2266,-10.1862 103.5901,14.792 262.9229,-64.81406 l -278.2905,-63.18599 c -69.7901,-15.84587 -86.952,-72.81254 -128.4219,-91.77054 z"
       fill="#8c665b"
       id="path20"
       sodipodi:nodetypes="cccccscsc"
       style="stroke-width:1.32875" />
    <path
       d="m -175.9016,759.25423 c -75.26725,-57.338 -225.41137,-239.7108 -333.72784,-243.1128 172.07358,208.38202 193.43231,354.61283 803.23141,354.61283 266.55993,0 1009.02283,-23.93881 1218.79093,-73.91281 -67.9459,-3.732 -144.1953,-11.63256 -277.2787,9.886 C 1167.5598,817.65047 1089.3896,725.44757 1024,744.96 c -172.90723,-8 -470.49617,22.72421 -582.72015,-11.77579 -143.91935,-44.242 -104.81763,38.69324 -220.5297,19.69124 -115.71205,-19 -83.42323,-6.68757 -129.835473,-25.62557 C 60.77145,714.95218 46.155545,741.57324 0,744.96 c -56.701454,4.16059 -110.37255,64.21565 -175.9016,14.29423 z"
       fill="#674447"
       id="path33"
       sodipodi:nodetypes="ccscsccccsc"
       style="stroke-width:1.62928" />
  </g>
</svg>
